<!DOCTYPE svg PUBLIC "-//W3C//DTD SVG 1.1//EN" "http://www.w3.org/Graphics/SVG/1.1/DTD/svg11.dtd">
<!-- Uploaded to: SVG Repo, www.svgrepo.com, Transformed by: SVG Repo Mixer Tools -->
<svg height="800px" width="800px" version="1.1" id="Layer_1" xmlns="http://www.w3.org/2000/svg" xmlns:xlink="http://www.w3.org/1999/xlink" viewBox="0 0 512 512" xml:space="preserve" fill="#000000">
<g id="SVGRepo_bgCarrier" stroke-width="0"/>
<g id="SVGRepo_tracerCarrier" stroke-linecap="round" stroke-linejoin="round"/>
<g id="SVGRepo_iconCarrier"> <g> <path style="fill:#e8e8e8;" d="M512,256C512,114.616,397.384,0,256,0S0,114.616,0,256s114.616,256,256,256S512,397.384,512,256 L512,256z"/> <path style="fill:#d1d1d1;" d="M511.759,265.467c-0.323-0.287-153.354-153.313-154.675-154.547l0.077-0.082 c-1.475-1.377-2.98-2.724-4.511-4.04l-0.072,0.087c-9.119-7.854-19.19-14.618-30.029-20.086l0.041-0.077 c-1.807-0.916-3.63-1.782-5.478-2.621l-0.036,0.077c-10.875-4.941-22.446-8.602-34.529-10.793l0.01-0.051 c-0.896-0.164-1.807-0.287-2.708-0.435c-0.691-0.113-1.377-0.23-2.068-0.333l-1.208-0.195l-0.005,0.041 c-6.728-0.937-13.588-1.459-20.572-1.459c-5.263,0-10.46,0.287-15.58,0.824v-0.02c-1.997,0.215-3.988,0.461-5.965,0.753 l0.005,0.026c-12.16,1.777-23.839,5.043-34.857,9.595l-0.02-0.051c-1.874,0.768-3.722,1.577-5.555,2.422l0.031,0.072 c-11.039,5.1-21.34,11.51-30.715,19.041l-0.056-0.072c-1.567,1.26-3.108,2.55-4.623,3.866l0.067,0.077 c-9.103,7.941-17.229,16.968-24.177,26.885l-0.082-0.056c-1.157,1.659-2.278,3.328-3.364,5.028l0.082,0.051 c-6.482,10.102-11.761,21.033-15.657,32.604l-0.061-0.02c-0.302,0.901-0.568,1.812-0.85,2.719l-0.271,0.865 c-0.225,0.727-0.471,1.449-0.681,2.181l0.056,0.015c-3.323,11.397-5.315,23.347-5.786,35.692h-0.036 c-0.072,1.9-0.113,3.809-0.113,5.719v0.282h0.005c0.01,4.449,0.241,8.842,0.635,13.189c-0.23,2.565-0.394,5.151-0.497,7.752h-0.036 c-0.072,1.9-0.113,3.809-0.113,5.719v0.282h0.005c0.01,4.449,0.241,8.842,0.635,13.189c-0.23,2.565-0.394,5.151-0.497,7.752h-0.036 c-0.072,1.9-0.113,3.809-0.113,5.719v0.287h0.005c0.026,12.38,1.582,24.407,4.48,35.907l-0.031,0.005l0.21,0.773l0.026,0.102 c0.43,1.664,0.87,3.318,1.352,4.961l0.056-0.015c3.471,11.725,8.356,22.845,14.459,33.167l-0.072,0.041 c1.019,1.725,2.074,3.43,3.159,5.11l0.082-0.051c0.886,1.367,1.782,2.719,2.708,4.05c5.688,8.187,12.196,15.744,19.374,22.62 l38.252,38.267c-0.87,0.727-1.756,1.439-2.596,2.196l0.051,0.056c-6.139,5.494-11.648,11.745-16.323,18.698l-0.01-0.005 c-1.157,1.72-2.258,3.476-3.308,5.274l68.076,66.775C243.773,511.708,249.851,512,256,512 C394.209,512,506.772,402.458,511.759,265.467L511.759,265.467z"/> <path style="fill:#F1B14F;" d="M192.922,458.107l-23.265-13.599c17.884-30.602,50.99-49.603,86.395-49.603 c34.898,0,66.708,17.736,85.1,47.442l-22.917,14.177c-13.44-21.709-36.685-34.673-62.182-34.673 C230.19,421.847,205.998,435.743,192.922,458.107L192.922,458.107z"/> <path style="fill:#F0973E;" d="M172.426,440.044c-0.957,1.459-1.884,2.944-2.77,4.465 C170.542,442.993,171.469,441.503,172.426,440.044L172.426,440.044z M172.503,439.931l-0.072,0.108L172.503,439.931 L172.503,439.931z M189.276,420.511c-6.139,5.489-11.633,11.766-16.307,18.719l10.563,7.091 c4.291-5.883,9.247-11.177,14.735-15.795L189.276,420.511L189.276,420.511z M301.681,414.07c-1.725,0.563-3.461,1.091-5.212,1.587 v3.313c0.635,0.323,1.265,0.65,1.889,0.983L301.681,414.07L301.681,414.07z M201.748,410.993c-2.662,1.72-5.248,3.569-7.736,5.535 l8.479,10.655c4.142-3.082,8.535-5.806,13.138-8.136v-3.364C210.903,414.346,206.269,412.78,201.748,410.993L201.748,410.993z M310.472,410.9l-0.087,0.036l0.205,0.133l-7.588,11.561c6.077,3.753,11.72,8.253,16.788,13.425l9.748-8.991 c1.408,1.526,2.77,3.098,4.081,4.71l-10.153,8.259c2.458,2.831,4.762,5.832,6.886,8.996l10.803-6.687 C333.174,429.45,322.668,418.811,310.472,410.9L310.472,410.9z"/> <path style="fill:#EF8131;" d="M293.78,428.058c-0.758,1.014-1.659,1.915-2.668,2.678l0.881,0.486L293.78,428.058L293.78,428.058z M303.002,422.63l-7.168,10.921c5.074,3.297,9.748,7.24,13.916,11.766l10.04-9.262C314.721,430.884,309.079,426.388,303.002,422.63 L303.002,422.63z M242.555,420.669l-0.005,0.123v0.005l-0.005,0.041v0.005l-0.005,0.077v0.01l-0.005,0.072v0.01v0.02v0.026v0.005 l-0.005,0.082v0.026v0.015v0.01l-0.031,0.287v0.005l-0.092,0.666v0.005l-0.041,0.246v0.01l-0.005,0.031v0.005l-0.015,0.077v0.01 l-0.005,0.031l-0.005,0.015l-0.005,0.031v0.005l-0.015,0.077l-0.005,0.015l-0.005,0.026l-0.005,0.02l-0.005,0.02l-0.005,0.02 l-0.005,0.02l-0.005,0.015l-0.005,0.026l-0.005,0.015l-0.005,0.026l-0.01,0.01l-0.005,0.026l-0.005,0.026l-0.005,0.015l-0.005,0.02 l-0.005,0.02l-0.005,0.015l-0.005,0.026l-0.005,0.02l-0.005,0.02l-0.01,0.036v0.005l-0.01,0.036v0.005v0.005l0.384-0.072v-2.442 L242.555,420.669L242.555,420.669z M269.537,420.659h-0.015v2.412l0.374,0.072C269.701,422.344,269.583,421.514,269.537,420.659 L269.537,420.659z M215.629,419.052c-4.598,2.33-8.996,5.053-13.138,8.136l8.269,10.388c-1.198,0.952-2.371,1.94-3.512,2.965 l-8.986-10.01c-5.489,4.618-10.45,9.912-14.735,15.795l11.807,7.926c6.636-9.871,15.529-17.864,25.743-23.444 c-3.313-2.452-5.458-6.39-5.458-10.829v-0.927H215.629z M296.468,418.97v1.009l-0.005,0.348l0,0l-0.005,0.164v0.01l-0.01,0.292 v0.005l-0.005,0.041v0.005l-0.005,0.077v0.01l-0.005,0.072v0.01v0.02v0.026v0.005l-0.005,0.082v0.026v0.015v0.01l-0.031,0.287 v0.005l-0.092,0.666v0.005l-0.041,0.246v0.01l-0.005,0.031v0.005l-0.015,0.077v0.01l-0.005,0.031v0.015l-0.005,0.031v0.005 l-0.015,0.077l-0.026,0.01l-0.005,0.026l-0.005,0.02l-0.005,0.02l-0.005,0.02l-0.005,0.02l-0.005,0.015l-0.005,0.026l-0.005,0.015 l-0.005,0.026l0.005,0.015l-0.005,0.026l-0.005,0.026l-0.005,0.015l-0.005,0.02l-0.005,0.02l-0.005,0.015l-0.005,0.026l-0.005,0.02 l-0.005,0.02l-0.01,0.036v0.005l-0.01,0.036v0.005l-0.01,0.036l0,0c-0.154,0.62-0.348,1.219-0.584,1.802l2.862-5.069 C297.733,419.62,297.103,419.292,296.468,418.97L296.468,418.97z"/> <path style="fill:#D34837;" d="M330.353,449.029l-12.114,7.491L330.353,449.029z"/> <path style="fill:#EF8131;" d="M323.461,440.028l-10.737,8.735c1.981,2.442,3.825,5.033,5.514,7.757l12.114-7.496 C328.223,445.86,325.924,442.86,323.461,440.028L323.461,440.028z"/> <polygon style="fill:#D34837;" points="180.46,450.821 180.46,450.821 192.922,458.107 "/> <path style="fill:#EF8131;" d="M193.439,457.231l-0.031,0.051L193.439,457.231L193.439,457.231z M180.46,450.821L180.46,450.821 l12.462,7.286l0.456-0.768l-0.456,0.768L180.46,450.821L180.46,450.821z"/> <path style="fill:#EF8131;" d="M310.385,410.936c-2.857,1.132-5.765,2.176-8.704,3.133l-3.323,5.883 c1.577,0.845,3.123,1.736,4.644,2.678l7.588-11.561L310.385,410.936L310.385,410.936z"/> <path style="fill:#E35A49;" d="M191.816,418.258c-0.865,0.727-1.725,1.469-2.565,2.227c0.707-0.635,1.439-1.234,2.171-1.838 l0.425-0.358L191.816,418.258L191.816,418.258z"/> <path style="fill:#D34837;" d="M191.421,418.647c-0.727,0.604-1.464,1.203-2.171,1.838l0.026,0.026 C189.983,419.881,190.7,419.256,191.421,418.647L191.421,418.647z M193.976,416.492c-0.727,0.584-1.449,1.172-2.161,1.766 l0.031,0.031c0.712-0.594,1.434-1.183,2.161-1.756L193.976,416.492L193.976,416.492z"/> <path style="fill:#EF8131;" d="M194.012,416.532c-1.618,1.275-3.195,2.601-4.736,3.978l8.991,10.02 c1.377-1.157,2.785-2.273,4.224-3.343L194.012,416.532L194.012,416.532z"/> <path style="fill:#EF8131;" d="M329.539,427.064l-9.748,8.991c1.26,1.285,2.483,2.611,3.671,3.978l10.153-8.259 C332.308,430.162,330.947,428.59,329.539,427.064L329.539,427.064z"/> <path style="fill:#D34837;" d="M291.994,431.222l-0.02,0.041c1.306,0.737,2.586,1.516,3.835,2.33l0.026-0.041 C294.579,432.737,293.294,431.959,291.994,431.222L291.994,431.222z"/> <polygon style="fill:#D34837;" points="172.969,439.229 172.503,439.931 172.969,439.229 "/> <path style="fill:#D34837;" d="M172.431,440.038l-0.005,0.005L172.431,440.038z"/> <path style="fill:#EF8131;" d="M172.969,439.229L172.969,439.229l-0.466,0.696l-0.072,0.108l-0.005,0.005 c-0.963,1.459-1.884,2.949-2.77,4.465l10.798,6.313c0.978-1.531,2.007-3.031,3.072-4.495L172.969,439.229L172.969,439.229z"/> <path style="fill:#D34837;" d="M309.75,445.317l-0.02,0.02c1.029,1.116,2.027,2.258,2.985,3.436l0.015-0.01 C311.767,447.58,310.774,446.433,309.75,445.317L309.75,445.317z"/> <path style="fill:#D34837;" d="M195.338,454.252c-0.655,0.978-1.29,1.971-1.9,2.98 C194.048,456.223,194.683,455.229,195.338,454.252L195.338,454.252L195.338,454.252z"/> <path style="fill:#D34837;" d="M193.408,457.288l-0.031,0.051L193.408,457.288z"/> <path style="fill:#EE6E27;" d="M183.532,446.326c-1.065,1.464-2.089,2.964-3.072,4.495l12.462,7.286l0.456-0.768l0.031-0.051 l0.031-0.051c0.609-1.014,1.244-2.007,1.9-2.98L183.532,446.326L183.532,446.326z M319.79,436.055l-10.04,9.262 c1.024,1.111,2.017,2.263,2.975,3.446l10.737-8.735C322.273,438.666,321.05,437.34,319.79,436.055L319.79,436.055z M202.491,427.182c-1.439,1.07-2.847,2.186-4.224,3.343l8.986,10.01c1.142-1.019,2.309-2.012,3.512-2.965L202.491,427.182 L202.491,427.182z M298.358,419.953l-2.862,5.069c-0.44,1.091-1.019,2.109-1.715,3.036l-1.787,3.164 c1.306,0.737,2.586,1.516,3.84,2.33l7.168-10.921C301.481,421.693,299.935,420.797,298.358,419.953L298.358,419.953z"/> <path style="fill:#F1B14F;" d="M255.995,421.268c-81.725,0-148.209-66.488-148.209-148.209s66.488-148.209,148.209-148.209 s148.214,66.483,148.214,148.209C404.209,354.78,337.72,421.268,255.995,421.268L255.995,421.268z M255.995,151.793 c-66.867,0-121.262,54.4-121.262,121.262s54.4,121.262,121.262,121.262s121.262-54.4,121.262-121.262 S322.862,151.793,255.995,151.793L255.995,151.793z"/> <path style="fill:#D34837;" d="M107.786,273.06v0.282V273.06L107.786,273.06z M404.209,272.845v0.154v-0.128V272.845 L404.209,272.845z M107.786,272.845v0.215V272.845L107.786,272.845z M107.786,272.625v0.148V272.625L107.786,272.625z M107.786,272.394v0.154V272.394L107.786,272.394z M107.786,272.143v0.113V272.143L107.786,272.143z M107.791,271.954v0.067 V271.954L107.791,271.954z"/> <path style="fill:#E35A49;" d="M113.853,315.09l-0.02,0.005L113.853,315.09L113.853,315.09L113.853,315.09z M112.246,309.258 c0.492,1.961,1.019,3.907,1.592,5.837c-0.415-1.408-0.799-2.821-1.167-4.244l-0.22-0.835L112.246,309.258L112.246,309.258z"/> <path style="fill:#D34837;" d="M398.234,314.783c-0.573,1.946-1.183,3.876-1.833,5.786l0.02,0.005 c0.645-1.91,1.254-3.84,1.828-5.791H398.234L398.234,314.783z M112.666,310.851c0.369,1.423,0.753,2.836,1.167,4.244l0.02-0.005 C113.439,313.687,113.044,312.274,112.666,310.851L112.666,310.851z M112.256,309.253l-0.015,0.005l0.205,0.758L112.256,309.253 L112.256,309.253z"/> <path style="fill:#E35A49;" d="M128.471,348.611c0.963,1.618,1.951,3.215,2.964,4.787l0.046-0.031l0,0l-0.046,0.031 C130.417,351.826,129.428,350.228,128.471,348.611L128.471,348.611z M128.323,348.262l-0.041,0.026L128.323,348.262 L128.323,348.262L128.323,348.262z"/> <path style="fill:#D34837;" d="M380.667,353.126c-1.096,1.695-2.222,3.374-3.384,5.023l0.051,0.036 c1.162-1.654,2.289-3.328,3.379-5.028L380.667,353.126L380.667,353.126z M128.323,348.262l-0.041,0.026l0.189,0.323 c0.963,1.618,1.951,3.215,2.964,4.787l0.046-0.031C130.396,351.693,129.341,349.988,128.323,348.262L128.323,348.262z"/> <path style="fill:#E35A49;" d="M154.66,381.123l-0.046,0.051c0.594,0.558,1.193,1.111,1.802,1.659l-1.152-1.152L154.66,381.123 L154.66,381.123z"/> <path style="fill:#D34837;" d="M317.66,407.828c-1.818,0.835-3.661,1.638-5.519,2.401l0.01,0.026 c1.859-0.763,3.702-1.562,5.519-2.396L317.66,407.828L317.66,407.828z M189.169,405.335l-0.015,0.031 c1.792,0.906,3.604,1.777,5.432,2.616l0.015-0.031C192.773,407.117,190.961,406.246,189.169,405.335L189.169,405.335z M353.07,384.968c-1.521,1.321-3.067,2.611-4.639,3.866l0.041,0.051c1.572-1.26,3.123-2.55,4.639-3.871L353.07,384.968 L353.07,384.968z M155.264,381.686l1.152,1.152c0.886,0.804,1.777,1.597,2.683,2.376l0.046-0.051 C157.829,384.026,156.534,382.863,155.264,381.686L155.264,381.686z"/> <path style="fill:#F0973E;" d="M308.07,386.852v10.824c1.388-0.579,2.76-1.183,4.122-1.807L308.07,386.852L308.07,386.852z M353.07,384.963c-1.521,1.321-3.067,2.611-4.639,3.866l0,0C350.003,387.574,351.549,386.284,353.07,384.963L353.07,384.963 L353.07,384.963z M200.228,383.437l-5.13,10.158c1.638,0.829,3.297,1.623,4.972,2.391l4.89-10.711 C203.372,384.686,201.789,384.072,200.228,383.437L200.228,383.437z M339.046,368.814c-1.428,0.973-2.877,1.915-4.342,2.842 l5.545,6.938c1.434-1.147,2.842-2.319,4.229-3.523L339.046,368.814L339.046,368.814z M168.878,365.952l-5.243,5.591 c1.336,1.254,2.703,2.488,4.091,3.686l5.427-6.272C171.709,367.98,170.281,366.976,168.878,365.952L168.878,365.952z M128.323,348.262L128.323,348.262L128.323,348.262c1.019,1.725,2.074,3.425,3.159,5.105l0,0l0,0 C130.396,351.693,129.341,349.988,128.323,348.262L128.323,348.262z M366.935,344.289c-1.198,1.352-2.422,2.688-3.671,3.994 l3.292,2.314c1.055-1.5,2.084-3.026,3.077-4.572L366.935,344.289L366.935,344.289z M141.686,340.352l-2.058,1.219 c0.932,1.577,1.894,3.144,2.888,4.68l2.719-1.751C144.031,343.137,142.843,341.755,141.686,340.352L141.686,340.352z M112.261,309.253h-0.005l0.195,0.763l0.22,0.835c0.374,1.418,0.773,2.836,1.188,4.239l0,0h0.005 C113.285,313.155,112.758,311.219,112.261,309.253L112.261,309.253z M404.204,272.492h-2.34l-0.102,0.573h2.447v-0.067v-0.154 L404.204,272.492L404.204,272.492z M107.894,267.336c-0.061,1.536-0.097,3.072-0.108,4.618v0.067v0.128v0.113v0.138v0.154v0.077 v0.148v0.067v0.215v0.282h0.01v-0.282h2.447c-0.348-1.879-0.655-3.768-0.932-5.673L107.894,267.336L107.894,267.336z M347.53,166.651l-3.476,4.045c1.393,1.198,2.76,2.427,4.101,3.676l3.062-3.272C350.019,169.585,348.79,168.105,347.53,166.651 L347.53,166.651z M167.757,163.016c-1.321,1.403-2.611,2.836-3.866,4.301l3.425,3.932c1.382-1.203,2.79-2.386,4.219-3.533 L167.757,163.016L167.757,163.016z M315.884,140.692l-4.219,9.324c1.679,0.758,3.338,1.551,4.977,2.376l4.352-8.622 C319.314,142.705,317.614,141.681,315.884,140.692L315.884,140.692z M200.525,138.296c-1.766,0.911-3.517,1.869-5.233,2.867 l4.25,9.221c1.659-0.763,3.338-1.495,5.033-2.196L200.525,138.296L200.525,138.296z M276.526,126.587l-1.772,12.759 c1.823,0.251,3.64,0.543,5.437,0.87l2.263-12.457C280.499,127.319,278.523,126.93,276.526,126.587L276.526,126.587z M240.435,125.844c-1.992,0.256-3.973,0.563-5.934,0.911l1.853,12.713c1.807-0.261,3.63-0.492,5.458-0.681L240.435,125.844 L240.435,125.844z"/> <path style="fill:#D34837;" d="M158.1,201.569c-9.595,13.107-16.625,28.201-20.347,44.539l0.005,0.015 C141.471,229.78,148.506,214.682,158.1,201.569L158.1,201.569z M255.995,151.793c-23.695,0-45.829,6.835-64.527,18.632 c18.698-11.796,40.832-18.627,64.532-18.627c10.788,0,21.253,1.413,31.217,4.07C277.258,153.211,266.788,151.793,255.995,151.793 L255.995,151.793z"/> <path style="fill:#F0973E;" d="M256.005,138.056c-4.792,0-9.523,0.251-14.188,0.737l1.459,13.66 c-1.654,0.174-3.302,0.379-4.936,0.614l-1.981-13.594c-11.085,1.613-21.74,4.577-31.775,8.714l5.217,12.723 c-1.516,0.62-3.016,1.275-4.49,1.956l-5.755-12.488c-10.071,4.639-19.461,10.476-28.012,17.336l8.612,10.726 c-1.29,1.034-2.56,2.094-3.804,3.18l-9.027-10.373c-7.793,6.794-14.797,14.464-20.859,22.861c-0.292,0.614-0.584,1.234-0.865,1.853 l10.972,7.654c-0.947,1.357-1.864,2.729-2.76,4.122l-10.404-6.651c-3.978,9.917-6.682,20.48-7.91,31.483l5.524,1.848 c-0.522,1.567-1.019,3.144-1.48,4.731l-3.308-0.963c0.425,2.673,0.932,5.304,1.526,7.916c3.722-16.338,10.752-31.432,20.347-44.539 c9.052-12.365,20.378-22.953,33.372-31.145c18.698-11.796,40.832-18.632,64.527-18.632c10.793,0,21.258,1.418,31.227,4.076 c43.238,11.52,77.036,46.382,87.025,90.22c0.246-1.075,0.476-2.166,0.691-3.251l-1.382,0.353c-0.41-1.608-0.85-3.2-1.321-4.777 l3.661-1.091c0.236-1.551,0.44-3.113,0.614-4.685c-1.044-9.421-3.18-18.524-6.262-27.172l-9.887,5.832 c-0.829-1.413-1.7-2.801-2.586-4.173l10.496-6.815c-0.865-2.115-1.787-4.188-2.765-6.241c-5.14-7.117-10.962-13.711-17.362-19.692 l-9.395,10.045c-1.203-1.126-2.427-2.222-3.676-3.292l8.97-10.429c-8.315-7.158-17.516-13.322-27.412-18.299l-6.195,12.273 c-1.469-0.737-2.954-1.449-4.454-2.125l5.673-12.524c-9.907-4.485-20.454-7.813-31.468-9.8l-2.458,13.527 c-1.613-0.297-3.236-0.553-4.869-0.778l1.889-13.614C268.626,138.496,262.369,138.056,256.005,138.056L256.005,138.056z"/> <path style="fill:#EF8131;" d="M375.905,237.322l-3.661,1.091c0.471,1.577,0.911,3.174,1.321,4.777l1.382-0.353 C375.301,241.014,375.624,239.176,375.905,237.322L375.905,237.322z M135.491,232.576l-0.01,0.097 c0.205,1.853,0.456,3.697,0.742,5.524l3.308,0.963c0.461-1.587,0.957-3.164,1.48-4.731L135.491,232.576L135.491,232.576z M368.276,200.305l-10.496,6.815c0.891,1.372,1.756,2.765,2.586,4.173l9.887-5.832 C369.633,203.725,368.973,202.004,368.276,200.305L368.276,200.305z M145.592,195.973c-0.768,1.69-1.5,3.395-2.191,5.125 l10.404,6.651c0.896-1.393,1.818-2.765,2.76-4.122L145.592,195.973L145.592,195.973z M344.054,170.696l-8.97,10.429 c1.249,1.075,2.473,2.171,3.676,3.292l9.395-10.045C346.808,173.123,345.441,171.894,344.054,170.696L344.054,170.696z M171.535,167.721c-1.428,1.147-2.842,2.33-4.219,3.533l9.027,10.373c1.244-1.085,2.514-2.14,3.804-3.18L171.535,167.721 L171.535,167.721z M311.665,150.016l-5.673,12.524c1.5,0.681,2.985,1.388,4.454,2.125l6.195-12.273 C314.998,151.572,313.339,150.779,311.665,150.016L311.665,150.016z M204.58,148.188c-1.695,0.696-3.374,1.428-5.033,2.196 l5.755,12.488c1.48-0.686,2.975-1.336,4.49-1.956L204.58,148.188L204.58,148.188z M274.755,139.346l-1.889,13.614 c1.638,0.225,3.256,0.486,4.869,0.778l2.458-13.527C278.395,139.889,276.582,139.602,274.755,139.346L274.755,139.346z M241.818,138.793c-1.828,0.189-3.656,0.42-5.458,0.681l1.981,13.594c1.633-0.236,3.277-0.44,4.936-0.614L241.818,138.793 L241.818,138.793z"/> <path style="fill:#D34837;" d="M396.401,320.563c-3.922,11.556-9.231,22.477-15.729,32.563l0,0 C387.169,343.04,392.484,332.124,396.401,320.563L396.401,320.563L396.401,320.563z M404.214,273.065h-0.01 c0,0.886-0.01,1.772-0.026,2.657c-0.02,1.152-0.051,2.263-0.097,3.379c-0.497,12.339-2.509,24.294-5.857,35.686h0.005 C402.125,301.542,404.214,287.539,404.214,273.065L404.214,273.065z"/> <path style="fill:#E35A49;" d="M133.796,356.838c6.072,8.827,13.076,16.973,20.864,24.284l0,0 C146.872,373.806,139.868,365.665,133.796,356.838L133.796,356.838z"/> <path style="fill:#D34837;" d="M194.606,407.951L194.606,407.951c2.35,1.08,4.731,2.094,7.148,3.046l0.005-0.005 C199.342,410.04,196.956,409.021,194.606,407.951L194.606,407.951z M341.371,394.148c-7.429,5.253-15.365,9.846-23.711,13.681l0,0 C326.006,403.988,333.942,399.401,341.371,394.148L341.371,394.148z M159.14,385.157L159.14,385.157 c9.108,7.89,19.185,14.679,30.029,20.183v-0.005C178.335,399.831,168.253,393.037,159.14,385.157L159.14,385.157z M377.283,358.149 c-2.529,3.599-5.222,7.081-8.054,10.435C372.065,365.23,374.753,361.748,377.283,358.149L377.283,358.149L377.283,358.149z"/> <path style="fill:#EF8131;" d="M201.754,410.993l-0.005,0.005c4.521,1.787,9.155,3.354,13.88,4.69v-0.005 C210.903,414.341,206.275,412.774,201.754,410.993L201.754,410.993z"/> <path style="fill:#D34837;" d="M312.141,410.225c-0.558,0.23-1.111,0.451-1.674,0.676h0.005 C311.035,410.68,311.588,410.455,312.141,410.225L312.141,410.225L312.141,410.225z"/> <path style="fill:#EF8131;" d="M301.686,414.065c-1.725,0.558-3.461,1.091-5.212,1.587v0.005 C298.225,415.155,299.955,414.628,301.686,414.065L301.686,414.065L301.686,414.065z M310.472,410.9l-0.087,0.036h0.005 L310.472,410.9L310.472,410.9L310.472,410.9z"/> <path style="fill:#EE6E27;" d="M242.56,420.664L242.56,420.664l0.015,0.005v-0.005H242.56L242.56,420.664z M269.537,420.659h-0.015 v0.005L269.537,420.659L269.537,420.659L269.537,420.659z"/> <path style="fill:#EE6E27;" d="M310.385,410.931c-2.857,1.132-5.76,2.176-8.699,3.133v0.005 C304.625,413.112,307.528,412.068,310.385,410.931L310.385,410.931L310.385,410.931z"/> <path style="fill:#F0973E;" d="M242.56,420.649v0.02h0.015v-0.02H242.56L242.56,420.649z M308.07,400.287v11.438 c-3.799,1.434-7.665,2.724-11.597,3.855v0.072c1.751-0.497,3.487-1.029,5.212-1.587c2.939-0.952,5.847-2.002,8.699-3.133 l0.087-0.036c0.558-0.22,1.116-0.445,1.674-0.676L308.07,400.287L308.07,400.287z M200.069,395.981l-5.463,11.965 c2.35,1.075,4.736,2.089,7.153,3.041c4.521,1.782,9.149,3.354,13.875,4.69v-0.082c-3.231-0.932-6.415-1.966-9.554-3.092v-13.962 C204.047,397.737,202.045,396.882,200.069,395.981L200.069,395.981z M340.244,378.588c-8.561,6.84-17.976,12.662-28.052,17.28 l5.468,11.955c8.346-3.835,16.282-8.422,23.711-13.681c2.406-1.705,4.762-3.471,7.06-5.315L340.244,378.588L340.244,378.588z M167.726,375.229l-8.586,9.923c9.108,7.88,19.19,14.679,30.034,20.178l5.924-11.735 C185.211,388.593,176.026,382.408,167.726,375.229L167.726,375.229z M366.556,350.602c-6.344,9.032-13.763,17.244-22.083,24.463 l8.596,9.902c5.801-5.038,11.203-10.511,16.159-16.379c2.831-3.354,5.524-6.835,8.054-10.435L366.556,350.602L366.556,350.602z M142.52,346.245l-11.039,7.122c0.758,1.167,1.526,2.319,2.314,3.466c6.072,8.832,13.076,16.973,20.869,24.284l8.97-9.574 C155.612,364.022,148.516,355.528,142.52,346.245L142.52,346.245z M386.094,317.061c-1.7,3.108-3.512,6.149-5.427,9.119 l0.046,0.031c-0.558,0.865-1.126,1.731-1.7,2.586c-2.719,5.99-5.857,11.75-9.385,17.234l11.039,7.101 c6.497-10.086,11.807-21.007,15.729-32.563L386.094,317.061L386.094,317.061z M123.387,312.269l-9.528,2.816 c3.471,11.725,8.361,22.851,14.464,33.178l11.31-6.692c-2.483-4.209-4.736-8.55-6.758-13.036c-0.471-0.696-0.932-1.403-1.393-2.109 l-0.046,0.031c-1.085-1.679-2.135-3.384-3.159-5.11l0.041-0.026C126.577,318.367,124.928,315.351,123.387,312.269L123.387,312.269z M400.548,278.953c-0.681,2.995-1.454,5.96-2.309,8.883l0.015,0.005c-0.573,1.946-1.178,3.881-1.828,5.791l-0.02-0.005 c-2.15,6.328-4.71,12.467-7.66,18.381l9.487,2.775c3.348-11.392,5.361-23.342,5.857-35.686L400.548,278.953L400.548,278.953z M110.29,273.316l-2.493,0.026c0.026,12.375,1.572,24.412,4.47,35.912l8.653-2.176c-2.765-6.103-5.13-12.431-7.06-18.939 l-0.02,0.005c-0.573-1.93-1.101-3.876-1.592-5.837l0.015-0.005C111.508,279.347,110.853,276.342,110.29,273.316L110.29,273.316z M404.209,273.065L404.209,273.065c0,0.917-0.01,1.797-0.026,2.657C404.198,274.836,404.209,273.946,404.209,273.065 L404.209,273.065z"/> <path style="fill:#D23D2C;" d="M380.667,353.126c-1.096,1.695-2.222,3.374-3.384,5.023l0,0 C378.445,356.5,379.576,354.826,380.667,353.126L380.667,353.126L380.667,353.126z M398.228,314.778 c-0.573,1.946-1.183,3.876-1.833,5.786h0.005c0.65-1.915,1.26-3.84,1.833-5.786H398.228L398.228,314.778z M404.183,275.717 c-0.02,1.126-0.051,2.253-0.097,3.379l0,0C404.132,277.985,404.163,276.869,404.183,275.717L404.183,275.717z"/> <polygon style="fill:#E24D3A;" points="154.665,381.117 154.66,381.123 155.264,381.686 155.197,381.619 "/> <path style="fill:#D23D2C;" d="M317.66,407.823c-1.818,0.835-3.661,1.638-5.519,2.401l0,0 C313.999,409.462,315.843,408.663,317.66,407.823L317.66,407.823L317.66,407.823z M189.174,405.33L189.174,405.33 c1.787,0.911,3.599,1.787,5.427,2.621v-0.005C192.768,407.112,190.966,406.241,189.174,405.33L189.174,405.33z M155.197,381.619 l0.061,0.061c1.27,1.178,2.565,2.34,3.876,3.476v-0.005C157.804,384,156.493,382.822,155.197,381.619L155.197,381.619z"/> <path style="fill:#EF8131;" d="M312.192,395.868c-1.362,0.625-2.734,1.224-4.122,1.807v2.611l4.076,9.938 c1.859-0.763,3.697-1.562,5.519-2.401L312.192,395.868L312.192,395.868z M195.098,393.595l-5.924,11.735 c1.792,0.911,3.599,1.777,5.432,2.616l5.463-11.965C198.395,395.218,196.736,394.424,195.098,393.595L195.098,393.595z M344.474,375.066c-1.388,1.203-2.796,2.376-4.229,3.523l8.187,10.245c1.572-1.26,3.118-2.55,4.639-3.866L344.474,375.066 L344.474,375.066z M163.635,371.543l-8.97,9.574l0.538,0.502c1.295,1.203,2.606,2.381,3.942,3.538l8.586-9.923 C166.339,374.031,164.972,372.803,163.635,371.543L163.635,371.543z M369.628,346.025c-0.993,1.546-2.022,3.072-3.077,4.572 l10.732,7.547c1.162-1.649,2.289-3.323,3.384-5.023L369.628,346.025L369.628,346.025z M139.633,341.571l-11.31,6.692 c1.019,1.725,2.074,3.425,3.159,5.105l11.039-7.122C141.527,344.709,140.564,343.148,139.633,341.571L139.633,341.571z M388.741,312.003c-0.85,1.705-1.736,3.395-2.647,5.059l10.301,3.502c0.65-1.915,1.26-3.84,1.833-5.786L388.741,312.003 L388.741,312.003z M120.914,307.077l-8.653,2.176c0.497,1.961,1.024,3.901,1.597,5.837l9.528-2.816 C122.527,310.554,121.708,308.833,120.914,307.077L120.914,307.077z M110.239,273.065h-2.447v0.282l2.493-0.026L110.239,273.065 L110.239,273.065z M404.209,273.065h-2.447c-0.364,1.976-0.768,3.942-1.213,5.888l3.538,0.143c0.046-1.121,0.077-2.248,0.097-3.379 C404.198,274.857,404.204,273.976,404.209,273.065L404.209,273.065z"/> <path style="fill:#F1B14F;" d="M255.995,394.322c-81.725,0-148.209-66.488-148.209-148.209S174.275,97.905,255.995,97.905 s148.209,66.488,148.209,148.209C404.209,327.834,337.72,394.322,255.995,394.322L255.995,394.322z M255.995,124.846 c-66.867,0-121.262,54.4-121.262,121.262s54.4,121.262,121.262,121.262s121.262-54.4,121.262-121.262 S322.862,124.846,255.995,124.846L255.995,124.846z"/> <path style="fill:#D34837;" d="M107.791,245.007v0.061V245.007z"/> <path style="fill:#D34837;" d="M107.786,245.197v0.113V245.197z"/> <path style="fill:#D34837;" d="M107.786,245.448v0.154V245.448z"/> <path style="fill:#D34837;" d="M107.786,245.678v0.148V245.678z"/> <path style="fill:#D34837;" d="M404.209,245.898v0.154v-0.128V245.898L404.209,245.898z M107.786,245.893v0.215V245.893 L107.786,245.893z"/> <polygon style="fill:#D34837;" points="107.786,246.113 107.786,246.113 107.786,246.395 "/> <path style="fill:#EF8131;" d="M128.323,321.316l-0.041,0.026c1.019,1.725,2.074,3.43,3.159,5.11l0.046-0.031 C130.396,324.746,129.341,323.041,128.323,321.316L128.323,321.316z M398.234,287.831c-0.573,1.946-1.183,3.876-1.833,5.786 l0.02,0.005c0.645-1.91,1.254-3.84,1.828-5.791H398.234L398.234,287.831z M112.256,282.307l-0.015,0.005 c0.492,1.961,1.019,3.907,1.592,5.837l0.02-0.005C113.28,286.208,112.753,284.273,112.256,282.307L112.256,282.307z"/> <path style="fill:#F0973E;" d="M379.162,328.468c-0.614,0.916-1.244,1.833-1.879,2.729l0.051,0.036 c0.568-0.809,1.126-1.623,1.679-2.442L379.162,328.468L379.162,328.468z"/> <path style="fill:#EF8131;" d="M380.667,326.18c-0.497,0.768-0.998,1.531-1.505,2.289l-0.148,0.323 c0.579-0.855,1.142-1.715,1.7-2.586L380.667,326.18L380.667,326.18z"/> <path style="fill:#F0973E;" d="M317.66,380.877c-1.818,0.835-3.661,1.638-5.519,2.401l0.01,0.026 c1.859-0.763,3.702-1.562,5.519-2.396L317.66,380.877L317.66,380.877z M189.169,378.388l-0.015,0.031 c1.792,0.906,3.604,1.782,5.432,2.616l0.015-0.031C192.773,380.17,190.961,379.295,189.169,378.388L189.169,378.388z M353.07,358.016c-1.521,1.321-3.067,2.611-4.639,3.866l0.041,0.051c1.572-1.26,3.123-2.55,4.639-3.871L353.07,358.016 L353.07,358.016z M154.66,354.176l-0.046,0.051c1.464,1.372,2.959,2.719,4.48,4.035l0.046-0.051 C157.619,356.9,156.124,355.548,154.66,354.176L154.66,354.176z"/> <path style="fill:#F0973E;" d="M308.07,359.905v10.824c1.388-0.579,2.76-1.183,4.122-1.807L308.07,359.905L308.07,359.905z M353.07,358.016c-1.521,1.321-3.067,2.611-4.639,3.866l0,0C350.003,360.627,351.549,359.337,353.07,358.016L353.07,358.016 L353.07,358.016z M200.228,356.49l-5.13,10.158c1.638,0.829,3.297,1.623,4.972,2.391l4.89-10.711 C203.372,357.74,201.789,357.125,200.228,356.49L200.228,356.49z M339.046,341.862c-1.428,0.973-2.877,1.92-4.342,2.842 l5.545,6.938c1.434-1.147,2.842-2.319,4.229-3.523L339.046,341.862L339.046,341.862z M168.878,339.005l-5.243,5.591 c1.336,1.254,2.703,2.488,4.091,3.686l5.427-6.272C171.709,341.033,170.281,340.029,168.878,339.005L168.878,339.005z M128.323,321.316L128.323,321.316c1.019,1.725,2.074,3.43,3.159,5.105l0,0C130.396,324.746,129.341,323.041,128.323,321.316 L128.323,321.316z M366.935,317.343c-1.198,1.352-2.422,2.688-3.671,3.994l3.292,2.314c1.055-1.5,2.084-3.026,3.077-4.572 L366.935,317.343L366.935,317.343z M141.686,313.405l-2.058,1.219c0.932,1.577,1.894,3.144,2.888,4.68l2.719-1.751 C144.031,316.191,142.843,314.808,141.686,313.405L141.686,313.405z M112.261,282.307h-0.005c0.497,1.961,1.024,3.901,1.597,5.837 h0.005C113.285,286.208,112.758,284.268,112.261,282.307L112.261,282.307z M404.204,245.545h-2.34l-0.102,0.573h2.447v-0.067 v-0.154L404.204,245.545L404.204,245.545z M107.894,240.389c-0.061,1.536-0.097,3.072-0.108,4.618v0.067v0.128v0.113v0.138v0.154 v0.077v0.148v0.067v0.215v0.282h0.01v-0.276h2.447c-0.348-1.879-0.655-3.768-0.932-5.673L107.894,240.389L107.894,240.389z M347.53,139.704l-3.476,4.045c1.393,1.198,2.76,2.427,4.101,3.676l3.062-3.272C350.019,142.638,348.79,141.158,347.53,139.704 L347.53,139.704z M167.757,136.069c-1.321,1.403-2.611,2.836-3.866,4.301l3.425,3.932c1.382-1.203,2.79-2.381,4.219-3.533 L167.757,136.069L167.757,136.069z M315.884,113.746l-4.224,9.324c1.679,0.758,3.338,1.551,4.977,2.376l4.352-8.622 C319.314,115.758,317.614,114.734,315.884,113.746L315.884,113.746z M200.525,111.35c-1.766,0.911-3.517,1.869-5.233,2.867 l4.25,9.221c1.659-0.763,3.338-1.495,5.033-2.196L200.525,111.35L200.525,111.35z M276.526,99.64l-1.772,12.759 c1.823,0.251,3.64,0.543,5.437,0.87l2.263-12.457C280.499,100.372,278.523,99.983,276.526,99.64L276.526,99.64z M240.435,98.898 c-1.992,0.256-3.973,0.563-5.934,0.911l1.853,12.713c1.807-0.261,3.63-0.492,5.458-0.681L240.435,98.898L240.435,98.898z"/> <polygon style="fill:#D34837;" points="255.995,124.846 255.8,124.846 255.995,124.846 256.189,124.846 "/> <path style="fill:#F0973E;" d="M158.423,174.188c-4.598,6.221-8.617,12.897-11.976,19.942l0.005-0.01 C149.811,187.075,153.83,180.403,158.423,174.188L158.423,174.188z M195.292,141.164c-1.341,0.778-2.657,1.577-3.963,2.406 C192.635,142.74,193.956,141.942,195.292,141.164L195.292,141.164L195.292,141.164z M282.46,127.754L282.46,127.754 c1.603,0.358,3.2,0.748,4.777,1.172C285.65,128.502,284.068,128.113,282.46,127.754L282.46,127.754z M234.501,126.756 c-12.032,2.161-23.45,6.103-33.976,11.54l0,0C211.052,132.859,222.469,128.922,234.501,126.756L234.501,126.756L234.501,126.756z M255.995,124.846H255.8c-5.207,0.01-10.332,0.348-15.365,0.993v0.005c5.1-0.655,10.296-0.993,15.57-0.993 c6.994,0,13.855,0.594,20.526,1.736l0,0c-6.61-1.132-13.409-1.725-20.337-1.741H255.995L255.995,124.846z"/> <path style="fill:#EF8131;" d="M200.525,138.296c-1.766,0.911-3.517,1.874-5.233,2.867l0,0 C197.007,140.165,198.758,139.208,200.525,138.296L200.525,138.296L200.525,138.296z M276.526,126.587L276.526,126.587 c1.992,0.343,3.968,0.732,5.929,1.172l0,0C280.499,127.319,278.523,126.93,276.526,126.587L276.526,126.587z M240.435,125.839 c-1.992,0.256-3.973,0.563-5.934,0.916v0.005c1.961-0.353,3.942-0.655,5.934-0.911V125.839L240.435,125.839z"/> <path style="fill:#EF8131;" d="M143.396,201.093c-3.978,9.917-6.687,20.48-7.91,31.483l0.005,0.005 C136.719,221.573,139.423,211.011,143.396,201.093L143.396,201.093L143.396,201.093z M146.458,194.115l-0.01,0.015 c-0.292,0.614-0.579,1.224-0.86,1.843h0.005C145.874,195.348,146.166,194.729,146.458,194.115L146.458,194.115z"/> <path style="fill:#EE6E27;" d="M135.485,232.576l-0.005,0.061l0.005,0.036l0.01-0.097H135.485L135.485,232.576z M145.592,195.968 c-0.768,1.684-1.5,3.4-2.196,5.125h0.005C144.092,199.363,144.824,197.663,145.592,195.968L145.592,195.968L145.592,195.968z"/> <path style="fill:#F0973E;" d="M256.005,111.109c-4.792,0-9.523,0.251-14.188,0.737l1.454,13.66 c-1.654,0.174-3.302,0.379-4.936,0.614l-1.981-13.594c-11.085,1.613-21.734,4.577-31.775,8.714l5.217,12.723 c-1.516,0.62-3.016,1.275-4.49,1.956l-5.755-12.488c-10.071,4.639-19.466,10.476-28.012,17.336l8.612,10.726 c-1.29,1.039-2.56,2.094-3.804,3.18l-9.027-10.373c-7.793,6.794-14.797,14.464-20.859,22.861c-0.292,0.614-0.584,1.234-0.865,1.853 l10.972,7.654c-0.947,1.357-1.864,2.729-2.76,4.122l-10.404-6.651c-3.978,9.917-6.682,20.48-7.91,31.483l5.524,1.848 c-0.522,1.567-1.019,3.144-1.48,4.731l-4.516-1.311c-0.184,2.734-0.276,5.489-0.276,8.269h-0.01c0,4.552,0.251,9.042,0.742,13.471 l0.005-0.061c1.229-11.003,3.932-21.56,7.91-31.483c0.691-1.725,1.423-3.436,2.196-5.125c0.282-0.62,0.568-1.229,0.86-1.843 c3.359-7.045,7.378-13.722,11.976-19.942c8.965-12.129,20.132-22.533,32.906-30.618c1.306-0.824,2.627-1.628,3.963-2.406 c1.715-0.998,3.461-1.956,5.233-2.867c10.527-5.437,21.944-9.38,33.976-11.54c1.961-0.353,3.942-0.655,5.934-0.916 c5.033-0.65,10.158-0.983,15.365-0.993H256h0.195c6.927,0.01,13.727,0.604,20.337,1.741c1.992,0.343,3.968,0.732,5.929,1.167 c1.608,0.358,3.195,0.748,4.777,1.172c47.575,12.682,83.712,53.622,89.283,103.675c0.312-2.806,0.527-5.632,0.64-8.489l0,0 c0.061-1.469,0.092-2.954,0.097-4.444v-0.061v-0.097v-0.102v-0.067v-0.174l-0.005-0.568l0,0c-0.005-1.096-0.026-2.191-0.056-3.277 l-3.64,0.927c-0.41-1.603-0.85-3.2-1.321-4.777l4.68-1.393c-0.819-10.988-3.108-21.571-6.671-31.555l-9.887,5.832 c-0.829-1.413-1.7-2.801-2.586-4.173l10.496-6.815c-0.865-2.115-1.787-4.188-2.765-6.241c-5.14-7.117-10.962-13.711-17.362-19.692 l-9.395,10.045c-1.203-1.126-2.427-2.222-3.676-3.297l8.97-10.429c-8.315-7.158-17.516-13.322-27.412-18.299l-6.195,12.273 c-1.469-0.737-2.954-1.449-4.454-2.125l5.673-12.524c-9.907-4.485-20.454-7.813-31.467-9.8l-2.458,13.527 c-1.613-0.297-3.236-0.553-4.869-0.778l1.889-13.614C268.626,111.549,262.369,111.109,256.005,111.109L256.005,111.109z"/> <path style="fill:#EF8131;" d="M376.924,210.068l-4.68,1.393c0.471,1.577,0.911,3.174,1.321,4.777l3.64-0.927 C377.144,213.56,377.052,211.809,376.924,210.068L376.924,210.068z M135.491,205.629c-0.195,1.746-0.353,3.502-0.471,5.268 l4.516,1.311c0.461-1.587,0.957-3.164,1.48-4.731L135.491,205.629L135.491,205.629z M368.276,173.358l-10.496,6.815 c0.891,1.372,1.756,2.765,2.586,4.173l9.887-5.832C369.633,176.778,368.973,175.058,368.276,173.358L368.276,173.358z M145.592,169.021c-0.768,1.69-1.5,3.395-2.191,5.125l10.404,6.651c0.896-1.393,1.818-2.765,2.76-4.122L145.592,169.021 L145.592,169.021z M344.049,143.749l-8.97,10.429c1.249,1.075,2.473,2.171,3.676,3.297l9.395-10.045 C346.808,146.176,345.441,144.947,344.049,143.749L344.049,143.749z M171.535,140.774c-1.428,1.147-2.842,2.33-4.219,3.533 l9.027,10.373c1.244-1.085,2.514-2.14,3.804-3.18L171.535,140.774L171.535,140.774z M311.665,123.069l-5.673,12.524 c1.5,0.681,2.985,1.388,4.454,2.125l6.195-12.273C314.998,124.621,313.339,123.832,311.665,123.069L311.665,123.069z M204.58,121.242c-1.695,0.696-3.374,1.428-5.033,2.196l5.755,12.488c1.48-0.686,2.975-1.336,4.49-1.956L204.58,121.242 L204.58,121.242z M274.755,112.399l-1.889,13.614c1.638,0.225,3.256,0.486,4.869,0.778l2.458-13.527 C278.395,112.942,276.582,112.655,274.755,112.399L274.755,112.399z M241.818,111.846c-1.828,0.189-3.656,0.42-5.458,0.681 l1.981,13.594c1.633-0.236,3.277-0.44,4.936-0.614L241.818,111.846L241.818,111.846z"/> <path style="fill:#D34837;" d="M404.214,246.113h-0.01c0,0.881-0.01,1.772-0.026,2.657c-0.02,1.152-0.051,2.263-0.097,3.379 c-0.102,2.493-0.261,4.977-0.486,7.439l0.005,0.046C404.009,255.181,404.214,250.67,404.214,246.113L404.214,246.113z"/> <path style="fill:#F0973E;" d="M312.141,383.278c-1.347,0.553-2.703,1.085-4.076,1.603v0.005 C309.437,384.369,310.794,383.831,312.141,383.278L312.141,383.278L312.141,383.278z M334.7,371.651 c-5.453,3.43-11.146,6.518-17.039,9.226l0,0C323.558,378.168,329.252,375.081,334.7,371.651L334.7,371.651L334.7,371.651z M341.688,366.976c-0.876,0.62-1.756,1.234-2.647,1.838l0,0C339.932,368.21,340.813,367.595,341.688,366.976L341.688,366.976z M377.283,331.203c-2.693,3.825-5.56,7.516-8.591,11.064C371.727,338.719,374.595,335.027,377.283,331.203L377.283,331.203 L377.283,331.203z M403.599,259.584c-0.394,4.362-0.978,8.658-1.746,12.908h0.005c0.763-4.229,1.347-8.52,1.741-12.861 L403.599,259.584L403.599,259.584z"/> <path style="fill:#EF8131;" d="M339.041,368.814c-1.428,0.973-2.877,1.915-4.342,2.842l0,0 C336.169,370.729,337.613,369.782,339.041,368.814L339.041,368.814L339.041,368.814z M401.864,272.492h-0.005l-0.102,0.573h0.005 L401.864,272.492L401.864,272.492z"/> <path style="fill:#EF8131;" d="M386.094,317.061c-1.7,3.108-3.512,6.149-5.427,9.119l0,0 C382.582,323.21,384.394,320.169,386.094,317.061L386.094,317.061L386.094,317.061z M396.401,293.617 c-2.145,6.328-4.715,12.472-7.66,18.381h0.005C391.69,306.084,394.255,299.95,396.401,293.617L396.401,293.617L396.401,293.617z M400.538,278.953c-0.681,2.995-1.454,5.955-2.309,8.878h0.005c0.86-2.924,1.633-5.888,2.309-8.883L400.538,278.953 L400.538,278.953z"/> <path style="fill:#EE6E27;" d="M388.736,312.003c-0.85,1.71-1.731,3.389-2.647,5.059l0,0 C387.005,315.397,387.891,313.708,388.736,312.003L388.736,312.003L388.736,312.003z M401.756,273.065h-0.005 c-0.363,1.976-0.768,3.942-1.213,5.888h0.005C400.988,277.002,401.393,275.036,401.756,273.065L401.756,273.065z"/> <path style="fill:#F0973E;" d="M308.07,373.34v11.54c1.367-0.517,2.724-1.05,4.076-1.603L308.07,373.34L308.07,373.34z M340.244,351.642c-8.561,6.84-17.976,12.662-28.052,17.28l5.468,11.955c5.898-2.708,11.592-5.796,17.039-9.226 c1.464-0.922,2.913-1.869,4.342-2.842c0.886-0.604,1.772-1.219,2.647-1.838c2.299-1.633,4.547-3.328,6.743-5.089L340.244,351.642 L340.244,351.642z M366.556,323.651c-6.344,9.032-13.763,17.244-22.083,24.463l8.596,9.902 c5.591-4.854,10.813-10.122,15.626-15.749c3.031-3.548,5.898-7.24,8.591-11.064L366.556,323.651L366.556,323.651z M386.094,290.115 c-1.7,3.108-3.512,6.149-5.427,9.119l0.046,0.031c-0.558,0.87-1.126,1.731-1.7,2.586c-2.714,5.99-5.857,11.75-9.385,17.234 l11.039,7.101c1.915-2.97,3.722-6.011,5.427-9.119c0.916-1.669,1.792-3.354,2.647-5.059c2.949-5.914,5.514-12.058,7.66-18.381 L386.094,290.115L386.094,290.115z M400.548,252.006c-0.681,2.995-1.454,5.96-2.309,8.883l0.015,0.005 c-0.573,1.946-1.178,3.881-1.828,5.791l-0.02-0.005c-2.15,6.328-4.71,12.467-7.66,18.381l9.487,2.775 c0.86-2.923,1.628-5.888,2.309-8.878c0.44-1.946,0.845-3.912,1.213-5.888l0.102-0.573c0.768-4.244,1.352-8.54,1.746-12.908 c0.225-2.463,0.384-4.941,0.486-7.439L400.548,252.006L400.548,252.006z M404.209,246.113L404.209,246.113 c0,0.916-0.01,1.797-0.026,2.657C404.198,247.885,404.209,246.999,404.209,246.113L404.209,246.113z"/> <path style="fill:#D23D2C;" d="M404.183,248.771c-0.02,1.126-0.051,2.253-0.097,3.379l0,0 C404.132,251.039,404.163,249.923,404.183,248.771L404.183,248.771z"/> <path style="fill:#EE6E27;" d="M398.228,287.831c-0.573,1.946-1.183,3.876-1.833,5.786h0.005c0.65-1.915,1.26-3.84,1.833-5.786 H398.228L398.228,287.831z"/> <path style="fill:#EF8131;" d="M379.167,328.463c-0.614,0.916-1.244,1.833-1.879,2.739l0,0c0.635-0.901,1.265-1.818,1.879-2.729 V328.463L379.167,328.463z"/> <path style="fill:#EE6E27;" d="M380.667,326.18c-0.492,0.768-0.993,1.526-1.5,2.284l-0.005,0.005 C379.674,327.711,380.17,326.948,380.667,326.18L380.667,326.18L380.667,326.18z"/> <path style="fill:#EF8131;" d="M317.66,380.877c-1.818,0.835-3.661,1.638-5.519,2.401l0,0 C313.999,382.515,315.843,381.716,317.66,380.877L317.66,380.877L317.66,380.877z"/> <path style="fill:#EF8131;" d="M312.192,368.922c-1.362,0.625-2.734,1.224-4.122,1.807v2.611l4.076,9.938 c1.859-0.763,3.697-1.562,5.519-2.401L312.192,368.922L312.192,368.922z M344.474,348.119c-1.388,1.203-2.796,2.376-4.229,3.523 l8.187,10.245c1.572-1.26,3.118-2.55,4.639-3.866L344.474,348.119L344.474,348.119z M369.628,319.078 c-0.993,1.546-2.022,3.072-3.077,4.572l10.732,7.547c0.635-0.906,1.265-1.818,1.879-2.739c0.507-0.758,1.009-1.521,1.5-2.284 L369.628,319.078L369.628,319.078z M388.741,285.056c-0.85,1.705-1.736,3.395-2.647,5.059l10.301,3.502 c0.65-1.915,1.26-3.84,1.833-5.786L388.741,285.056L388.741,285.056z M404.209,246.113h-2.447 c-0.364,1.976-0.768,3.942-1.213,5.888l3.538,0.143c0.046-1.121,0.077-2.248,0.097-3.379 C404.198,247.91,404.204,247.03,404.209,246.113L404.209,246.113z"/> <path style="fill:#F0973E;" d="M204.964,385.265L204.964,385.265l1.111,0.41v-0.005L204.964,385.265L204.964,385.265z M194.606,381 L194.606,381c1.853,0.855,3.727,1.664,5.622,2.432v-0.005C198.339,382.659,196.454,381.85,194.606,381L194.606,381z M173.158,368.952L173.158,368.952c5.115,3.466,10.465,6.62,16.01,9.436v-0.005C183.624,375.572,178.278,372.419,173.158,368.952 L173.158,368.952z M159.14,358.211L159.14,358.211c3.133,2.719,6.38,5.294,9.733,7.741l0.005-0.005 C165.524,363.505,162.273,360.919,159.14,358.211L159.14,358.211z M145.239,344.494L145.239,344.494 c2.995,3.369,6.134,6.595,9.421,9.682l0,0C151.378,351.089,148.234,347.858,145.239,344.494L145.239,344.494z M133.524,329.498 c2.555,3.743,5.284,7.368,8.161,10.854l0,0C138.808,336.86,136.084,333.245,133.524,329.498L133.524,329.498z"/> <path style="fill:#EF8131;" d="M200.228,383.432L200.228,383.432c1.562,0.64,3.144,1.254,4.731,1.838v-0.005 C203.372,384.681,201.795,384.067,200.228,383.432L200.228,383.432z M168.878,365.947L168.878,365.947 c1.403,1.029,2.831,2.033,4.275,3.011l0.005-0.005C171.715,367.98,170.286,366.976,168.878,365.947L168.878,365.947z M141.691,340.352L141.691,340.352c1.157,1.403,2.34,2.785,3.548,4.142l0,0C144.031,343.137,142.848,341.755,141.691,340.352 L141.691,340.352z"/> <path style="fill:#F0973E;" d="M200.069,369.034L194.606,381c1.853,0.845,3.732,1.659,5.622,2.432 c1.567,0.64,3.144,1.249,4.736,1.833l1.111,0.404v-14.075C204.047,370.79,202.045,369.935,200.069,369.034L200.069,369.034z M167.726,348.283l-8.586,9.923c3.133,2.714,6.385,5.294,9.738,7.741c1.408,1.024,2.836,2.028,4.28,3.005 c5.12,3.466,10.465,6.615,16.015,9.431l5.924-11.735C185.211,361.646,176.026,355.461,167.726,348.283L167.726,348.283z M142.52,319.299l-11.039,7.122c0.671,1.034,1.352,2.058,2.043,3.077c2.56,3.748,5.279,7.363,8.161,10.854 c1.157,1.403,2.345,2.785,3.548,4.142c2.995,3.364,6.139,6.6,9.426,9.677l8.97-9.574 C155.612,337.07,148.516,328.576,142.52,319.299L142.52,319.299z M123.387,285.322l-9.528,2.816 c3.471,11.725,8.361,22.851,14.464,33.178l11.31-6.692c-2.483-4.209-4.736-8.55-6.758-13.036c-0.471-0.696-0.937-1.403-1.393-2.109 l-0.046,0.031c-1.085-1.679-2.135-3.384-3.159-5.11l0.041-0.026C126.577,291.415,124.928,288.399,123.387,285.322L123.387,285.322z M110.29,246.369l-2.493,0.026c0.026,12.375,1.572,24.412,4.47,35.912l8.653-2.176c-2.765-6.103-5.13-12.431-7.06-18.939 l-0.02,0.005c-0.573-1.93-1.101-3.876-1.592-5.837l0.015-0.005C111.508,252.401,110.853,249.395,110.29,246.369L110.29,246.369z"/> <path style="fill:#EF8131;" d="M189.174,378.383L189.174,378.383c1.787,0.911,3.599,1.787,5.427,2.621V381 C192.768,380.165,190.966,379.295,189.174,378.383L189.174,378.383z M154.665,354.171L154.665,354.171 c1.459,1.377,2.959,2.724,4.475,4.04v-0.005C157.619,356.89,156.129,355.548,154.665,354.171L154.665,354.171z"/> <path style="fill:#EF8131;" d="M195.098,366.648l-5.924,11.735c1.792,0.911,3.599,1.782,5.432,2.616l5.463-11.965 C198.395,368.271,196.736,367.478,195.098,366.648L195.098,366.648z M163.635,344.596l-8.97,9.574 c1.464,1.377,2.959,2.719,4.48,4.035l8.586-9.923C166.339,347.085,164.972,345.856,163.635,344.596L163.635,344.596z M139.633,314.624l-11.31,6.692c1.019,1.725,2.074,3.425,3.159,5.105l11.039-7.122 C141.527,317.763,140.564,316.201,139.633,314.624L139.633,314.624z M120.914,280.131l-8.653,2.176 c0.497,1.961,1.024,3.901,1.597,5.837l9.528-2.816C122.527,283.607,121.708,281.882,120.914,280.131L120.914,280.131z M110.244,246.113h-2.447v0.276l2.493-0.026L110.244,246.113L110.244,246.113z"/> <path style="fill:#F1B14F;" d="M255.995,367.375c-81.725,0-148.209-66.488-148.209-148.209S174.275,70.958,255.995,70.958 s148.209,66.488,148.209,148.209C404.209,300.887,337.72,367.375,255.995,367.375L255.995,367.375z M255.995,97.9 c-66.867,0-121.262,54.4-121.262,121.262s54.4,121.262,121.262,121.262s121.262-54.4,121.262-121.262S322.862,97.9,255.995,97.9 L255.995,97.9z"/> <path style="fill:#D34837;" d="M240.415,71.757c-1.997,0.215-3.988,0.461-5.965,0.753v0.005c1.976-0.287,3.968-0.538,5.965-0.748 V71.757L240.415,71.757z"/> <path style="fill:#E35A49;" d="M276.593,72.376l0.113,0.02c1.756,0.246,3.507,0.527,5.243,0.835l0.609,0.102 C280.576,72.975,278.589,72.653,276.593,72.376L276.593,72.376z"/> <path style="fill:#D34837;" d="M281.948,73.226l0.609,0.108v-0.005L281.948,73.226L281.948,73.226z M276.572,72.376L276.572,72.376 l0.133,0.02l-0.113-0.02H276.572L276.572,72.376z"/> <polygon style="fill:#E35A49;" points="194.017,84.5 194.017,84.5 194.033,84.536 194.033,84.536 "/> <path style="fill:#D34837;" d="M199.572,82.079l-0.527,0.215c-1.695,0.701-3.369,1.439-5.028,2.202l0.015,0.036 c1.828-0.845,3.681-1.654,5.55-2.427L199.572,82.079L199.572,82.079z"/> <path style="fill:#D34837;" d="M317.107,84.101l-0.015,0.036c1.843,0.84,3.671,1.715,5.473,2.627l0.021-0.041 C320.778,85.806,318.956,84.936,317.107,84.101L317.107,84.101z"/> <path style="fill:#D34837;" d="M163.277,103.542c-1.567,1.26-3.108,2.55-4.623,3.866l0.041,0.046 c1.51-1.316,3.057-2.611,4.618-3.866L163.277,103.542L163.277,103.542z"/> <polygon style="fill:#E35A49;" points="357.161,110.843 357.11,110.899 357.11,110.899 357.161,110.843 "/> <path style="fill:#D34837;" d="M352.65,106.798l-0.046,0.051c1.526,1.316,3.031,2.668,4.506,4.045l0.051-0.056 C355.686,109.466,354.181,108.114,352.65,106.798L352.65,106.798z"/> <path style="fill:#D34837;" d="M380.38,138.552l-0.046,0.031c1.101,1.695,2.166,3.405,3.2,5.151l0.041-0.026 C382.546,141.957,381.481,140.242,380.38,138.552L380.38,138.552z M134.467,134.313L134.467,134.313 c-1.157,1.659-2.278,3.328-3.364,5.028l0.046,0.031c1.085-1.695,2.212-3.374,3.369-5.023L134.467,134.313L134.467,134.313z"/> <path style="fill:#E35A49;" d="M115.461,171.976c-0.64,1.905-1.239,3.825-1.802,5.765l0.394-1.27 c0.282-0.932,0.568-1.848,0.865-2.775C115.092,173.117,115.272,172.544,115.461,171.976l0.02,0.005L115.461,171.976 L115.461,171.976z"/> <path style="fill:#D34837;" d="M107.786,218.501v0.154V218.501L107.786,218.501z M107.786,218.25v0.113V218.25L107.786,218.25z M107.791,218.061v0.067V218.061L107.791,218.061z M398.075,176.829l-0.02,0.005c0.573,1.92,1.111,3.866,1.608,5.821l0.015-0.005 C399.176,180.7,398.643,178.76,398.075,176.829L398.075,176.829z M114.053,176.471l-0.394,1.27l0.015,0.005L114.053,176.471 L114.053,176.471z M115.461,171.976c-0.189,0.568-0.369,1.147-0.543,1.72c0.184-0.573,0.374-1.147,0.563-1.715L115.461,171.976 L115.461,171.976z"/> <polygon style="fill:#EF8131;" points="377.257,218.593 377.257,218.593 377.257,219.162 "/> <path style="fill:#D34837;" d="M107.786,218.732v0.148V218.732z"/> <path style="fill:#D34837;" d="M404.209,218.952v0.154v-0.128V218.952L404.209,218.952z M107.786,218.947v0.036v0.179V218.947 L107.786,218.947z"/> <polygon style="fill:#D34837;" points="107.786,219.162 107.786,219.162 107.786,219.448 107.786,219.448 "/> <path style="fill:#EF8131;" d="M377.257,219.663c-0.005,1.49-0.041,2.975-0.097,4.444 C377.221,222.633,377.252,221.153,377.257,219.663L377.257,219.663z M377.257,219.51v0.097V219.51L377.257,219.51z M377.257,219.341v0.067V219.341L377.257,219.341z"/> <path style="fill:#EF8131;" d="M128.323,294.369l-0.041,0.026c1.019,1.725,2.074,3.43,3.159,5.11l0.046-0.031 C130.396,297.795,129.341,296.095,128.323,294.369L128.323,294.369z M398.234,260.884c-0.573,1.946-1.183,3.876-1.833,5.786 l0.02,0.005c0.645-1.91,1.254-3.84,1.828-5.791H398.234L398.234,260.884z M112.256,255.36l-0.015,0.005 c0.492,1.961,1.019,3.907,1.592,5.837l0.02-0.005C113.28,259.261,112.753,257.326,112.256,255.36L112.256,255.36z"/> <path style="fill:#F0973E;" d="M379.162,301.522c-0.614,0.916-1.244,1.833-1.879,2.729l0.051,0.036 c0.568-0.809,1.126-1.623,1.679-2.442L379.162,301.522L379.162,301.522z"/> <path style="fill:#EF8131;" d="M380.667,299.233c-0.497,0.768-0.998,1.531-1.505,2.289l-0.148,0.323 c0.579-0.855,1.142-1.715,1.7-2.586L380.667,299.233L380.667,299.233z"/> <path style="fill:#F0973E;" d="M317.66,353.93c-1.818,0.835-3.661,1.638-5.519,2.401l0.01,0.026 c1.859-0.763,3.702-1.562,5.519-2.396L317.66,353.93L317.66,353.93z M189.169,351.442l-0.015,0.031 c1.792,0.906,3.604,1.777,5.432,2.616l0.015-0.031C192.773,353.224,190.961,352.348,189.169,351.442L189.169,351.442z M353.07,331.069c-1.521,1.321-3.067,2.611-4.639,3.866l0.041,0.051c1.572-1.26,3.123-2.55,4.639-3.871L353.07,331.069 L353.07,331.069z M154.66,327.229l-0.046,0.051c1.464,1.372,2.959,2.719,4.48,4.035l0.046-0.051 C157.619,329.948,156.124,328.602,154.66,327.229L154.66,327.229z"/> <path style="fill:#F0973E;" d="M308.07,332.954v10.824c1.388-0.579,2.76-1.183,4.122-1.807L308.07,332.954L308.07,332.954z M353.07,331.069c-1.521,1.321-3.067,2.611-4.639,3.866l0,0C350.003,333.681,351.549,332.39,353.07,331.069L353.07,331.069 L353.07,331.069z M201.298,327.419l-6.2,12.278c1.638,0.829,3.297,1.623,4.972,2.391l5.714-12.513 C204.273,328.883,202.778,328.166,201.298,327.419L201.298,327.419z M335.447,310.774c-1.244,1.08-2.509,2.135-3.799,3.164 l8.596,10.757c1.434-1.147,2.842-2.319,4.229-3.523L335.447,310.774L335.447,310.774z M173.041,307.615l-9.405,10.035 c1.336,1.254,2.703,2.488,4.091,3.686l8.996-10.399C175.473,309.852,174.244,308.746,173.041,307.615L173.041,307.615z M128.323,294.369L128.323,294.369c1.019,1.725,2.074,3.425,3.159,5.105l0,0C130.396,297.795,129.341,296.095,128.323,294.369 L128.323,294.369z M358.052,284.682c-0.891,1.382-1.812,2.755-2.76,4.101l11.259,7.921c1.055-1.5,2.084-3.026,3.077-4.572 L358.052,284.682L358.052,284.682z M151.465,280.668l-11.837,7.004c0.932,1.577,1.894,3.139,2.888,4.68l11.556-7.46 C153.18,283.5,152.31,282.092,151.465,280.668L151.465,280.668z M112.261,255.36h-0.005c0.497,1.961,1.024,3.901,1.597,5.837h0.005 C113.285,259.261,112.758,257.321,112.261,255.36L112.261,255.36z M372.383,253.322c-0.461,1.577-0.952,3.144-1.48,4.685 l13.03,4.429c0.584-1.731,1.137-3.487,1.654-5.248L372.383,253.322L372.383,253.322z M138.373,248.796l-13.327,3.348 c0.445,1.782,0.932,3.558,1.449,5.309l13.179-3.896C139.213,251.986,138.778,250.388,138.373,248.796L138.373,248.796z M134.257,219.167h-13.261v0.138L134.257,219.167L134.257,219.167z M377.267,218.593h-0.01v0.568v0.174v0.067v0.102v0.097v0.061 c-0.005,1.49-0.041,2.97-0.097,4.444l13.742,0.558c0.072-1.828,0.108-3.656,0.108-5.499h-13.742L377.267,218.593L377.267,218.593z M404.204,218.593h-13.194v0.573h13.194V219.1v-0.154V218.593L404.204,218.593z M107.894,213.443 c-0.061,1.536-0.097,3.072-0.108,4.618v0.067v0.128v0.113v0.138v0.154v0.077v0.148v0.067v0.215v0.282l0,0h0.01v-0.282h13.204 c0-1.746,0.036-3.492,0.097-5.228L107.894,213.443L107.894,213.443z M398.049,176.84l-12.626,3.758 c0.522,1.756,1.009,3.528,1.459,5.309l12.774-3.246C399.16,180.705,398.623,178.76,398.049,176.84L398.049,176.84z M115.482,171.981L115.482,171.981c-0.189,0.568-0.379,1.142-0.563,1.715c-0.297,0.927-0.584,1.843-0.865,2.775l-0.379,1.275 l12.662,3.681c0.512-1.766,1.06-3.523,1.644-5.258L115.482,171.981L115.482,171.981z M380.334,138.583l-11.013,7.148 c0.998,1.536,1.961,3.092,2.898,4.675l11.31-6.676C382.5,141.988,381.44,140.278,380.334,138.583L380.334,138.583z M134.518,134.349c-1.152,1.649-2.278,3.328-3.369,5.023l11.075,7.081c0.993-1.546,2.017-3.077,3.067-4.582L134.518,134.349 L134.518,134.349z M352.604,106.854l-8.556,9.948c1.393,1.198,2.76,2.427,4.101,3.676l8.96-9.58l0,0 C355.64,109.522,354.135,108.17,352.604,106.854L352.604,106.854z M163.313,103.588c-1.562,1.254-3.108,2.55-4.618,3.866l0,0 l8.617,9.902c1.382-1.203,2.79-2.381,4.219-3.533L163.313,103.588L163.313,103.588z M317.092,84.137l-5.427,11.986 c1.679,0.758,3.338,1.551,4.977,2.376l5.924-11.74C320.763,85.852,318.935,84.977,317.092,84.137L317.092,84.137z M199.583,82.109 c-1.869,0.773-3.722,1.582-5.55,2.427l0,0l5.509,11.955c1.659-0.763,3.338-1.495,5.033-2.196L199.583,82.109L199.583,82.109z M276.572,72.376l-1.818,13.076c1.823,0.251,3.64,0.543,5.437,0.87l2.36-12.984l-0.609-0.108c-1.736-0.307-3.487-0.584-5.243-0.835 L276.572,72.376L276.572,72.376z M240.415,71.767L240.415,71.767c-2.002,0.21-3.988,0.461-5.965,0.748l1.905,13.066 c1.807-0.261,3.63-0.492,5.458-0.681L240.415,71.767L240.415,71.767z"/> <polygon style="fill:#D34837;" points="255.995,97.9 255.8,97.9 255.995,97.9 256.189,97.9 "/> <path style="fill:#F0973E;" d="M195.292,114.217c-0.814,0.471-1.618,0.952-2.422,1.444 C193.674,115.169,194.478,114.688,195.292,114.217L195.292,114.217L195.292,114.217z M282.46,100.808L282.46,100.808 c1.147,0.256,2.289,0.527,3.425,0.819C284.749,101.34,283.607,101.064,282.46,100.808L282.46,100.808z M234.501,99.809 c-12.032,2.161-23.45,6.103-33.976,11.54l0,0C211.052,105.912,222.469,101.975,234.501,99.809L234.501,99.809L234.501,99.809z M255.995,97.9H255.8c-5.207,0.01-10.332,0.348-15.365,0.993v0.005c5.1-0.655,10.296-0.993,15.57-0.993 c6.994,0,13.855,0.594,20.526,1.736l0,0c-6.61-1.132-13.409-1.725-20.337-1.741H255.995L255.995,97.9z"/> <path style="fill:#EF8131;" d="M200.525,111.35c-1.766,0.911-3.517,1.874-5.233,2.867l0,0 C197.007,113.219,198.758,112.261,200.525,111.35L200.525,111.35L200.525,111.35z M276.526,99.64L276.526,99.64 c1.992,0.343,3.968,0.732,5.929,1.172l0,0C280.499,100.372,278.523,99.978,276.526,99.64L276.526,99.64z M240.435,98.893 c-1.992,0.256-3.973,0.563-5.934,0.916v0.005C236.462,99.461,238.444,99.154,240.435,98.893L240.435,98.893L240.435,98.893z"/> <path style="fill:#F0973E;" d="M158.556,147.057c-4.654,6.272-8.719,13.01-12.109,20.127l0.005-0.01 C149.847,160.056,153.907,153.324,158.556,147.057L158.556,147.057z"/> <path style="fill:#D34837;" d="M404.214,219.167h-0.01c0,0.881-0.01,1.766-0.026,2.652c-0.02,1.152-0.051,2.268-0.097,3.379 c-0.102,2.493-0.261,4.977-0.486,7.434l0.005,0.046C404.009,228.234,404.214,223.724,404.214,219.167L404.214,219.167z"/> <path style="fill:#F0973E;" d="M403.599,232.637c-0.394,4.362-0.978,8.658-1.746,12.908h0.005c0.763-4.229,1.347-8.52,1.741-12.861 L403.599,232.637L403.599,232.637z"/> <polygon style="fill:#EF8131;" points="401.864,245.545 401.853,245.545 401.751,246.113 401.756,246.113 "/> <path style="fill:#F0973E;" d="M145.239,317.548L145.239,317.548c2.995,3.369,6.134,6.595,9.421,9.682l0,0 C151.378,324.142,148.234,320.911,145.239,317.548L145.239,317.548z M133.524,302.546c2.56,3.748,5.284,7.368,8.166,10.86l0,0 C138.808,309.914,136.079,306.289,133.524,302.546L133.524,302.546z M133.504,302.52L133.504,302.52L133.504,302.52L133.504,302.52 z"/> <path style="fill:#EF8131;" d="M141.691,313.405L141.691,313.405c1.157,1.403,2.34,2.785,3.548,4.142l0,0 C144.031,316.191,142.848,314.803,141.691,313.405L141.691,313.405z"/> <path style="fill:#F0973E;" d="M173.158,342.006L173.158,342.006c5.115,3.466,10.465,6.62,16.01,9.436v-0.005 C183.624,348.621,178.278,345.472,173.158,342.006L173.158,342.006z M159.14,331.259L159.14,331.259 c3.133,2.719,6.38,5.294,9.733,7.741l0.005-0.005C165.524,336.558,162.273,333.972,159.14,331.259L159.14,331.259z M377.283,304.256c-2.698,3.835-5.571,7.537-8.612,11.09C371.712,311.788,374.589,308.086,377.283,304.256L377.283,304.256 L377.283,304.256z"/> <path style="fill:#EF8131;" d="M168.878,339L168.878,339c1.403,1.029,2.831,2.033,4.275,3.011l0.005-0.005 C171.715,341.028,170.286,340.029,168.878,339L168.878,339z"/> <path style="fill:#F0973E;" d="M334.7,344.704c-5.453,3.43-11.146,6.518-17.039,9.226l0,0 C323.558,351.222,329.252,348.134,334.7,344.704L334.7,344.704L334.7,344.704z M341.734,339.994 c-0.891,0.635-1.787,1.26-2.693,1.874l0,0C339.948,341.253,340.849,340.623,341.734,339.994L341.734,339.994z"/> <path style="fill:#EF8131;" d="M339.041,341.862c-1.428,0.973-2.877,1.915-4.342,2.842l0,0 C336.169,343.782,337.613,342.835,339.041,341.862L339.041,341.862L339.041,341.862z"/> <path style="fill:#F0973E;" d="M204.964,358.318L204.964,358.318l1.111,0.41v-0.005L204.964,358.318L204.964,358.318z M194.606,354.053L194.606,354.053c1.853,0.855,3.727,1.664,5.622,2.432v-0.005C198.339,355.712,196.454,354.898,194.606,354.053 L194.606,354.053z"/> <path style="fill:#EF8131;" d="M200.228,356.485L200.228,356.485c1.562,0.64,3.144,1.254,4.731,1.838v-0.005 C203.372,357.734,201.795,357.12,200.228,356.485L200.228,356.485z"/> <path style="fill:#F0973E;" d="M312.141,356.332c-1.347,0.553-2.703,1.085-4.076,1.603v0.005 C309.437,357.422,310.794,356.884,312.141,356.332L312.141,356.332L312.141,356.332z"/> <path style="fill:#EF8131;" d="M135.009,210.898c-0.082,1.249-0.148,2.504-0.195,3.758c-0.051,1.393-0.077,2.785-0.082,4.183v0.077 v0.082v0.169l0.01,0.005c0-2.78,0.092-5.535,0.276-8.269L135.009,210.898L135.009,210.898z M143.396,174.147 c-3.978,9.917-6.687,20.48-7.91,31.483l0.01,0.005C136.719,194.627,139.423,184.064,143.396,174.147L143.396,174.147 L143.396,174.147z M146.458,167.168l-0.01,0.015c-0.292,0.614-0.579,1.224-0.86,1.838h0.005 C145.874,168.402,146.166,167.782,146.458,167.168L146.458,167.168z"/> <path style="fill:#EE6E27;" d="M135.485,205.624c-0.195,1.746-0.353,3.502-0.471,5.268h0.01c0.118-1.766,0.276-3.523,0.471-5.268 H135.485L135.485,205.624z M145.592,169.021c-0.768,1.684-1.5,3.4-2.196,5.125h0.005 C144.092,172.416,144.824,170.711,145.592,169.021L145.592,169.021L145.592,169.021z"/> <path style="fill:#EF8131;" d="M400.538,252.006c-0.681,2.995-1.449,5.955-2.309,8.878h0.005c0.86-2.924,1.633-5.888,2.309-8.883 L400.538,252.006L400.538,252.006z"/> <path style="fill:#EE6E27;" d="M401.756,246.113h-0.005c-0.363,1.976-0.768,3.942-1.213,5.888h0.005 C400.988,250.056,401.393,248.09,401.756,246.113L401.756,246.113z"/> <path style="fill:#EF8131;" d="M386.094,290.115c-1.7,3.108-3.512,6.149-5.427,9.119l0,0 C382.582,296.264,384.394,293.222,386.094,290.115L386.094,290.115L386.094,290.115z M396.401,266.67 c-2.145,6.328-4.715,12.472-7.66,18.381h0.005C391.69,279.137,394.255,273.004,396.401,266.67L396.401,266.67L396.401,266.67z"/> <path style="fill:#EE6E27;" d="M388.736,285.056c-0.85,1.71-1.731,3.389-2.647,5.064l0,0 C387.005,288.451,387.891,286.761,388.736,285.056L388.736,285.056L388.736,285.056z"/> <path style="fill:#F0973E;" d="M308.07,346.394v11.54c1.367-0.517,2.724-1.05,4.076-1.603L308.07,346.394L308.07,346.394z M200.069,342.088l-5.463,11.965c1.853,0.845,3.732,1.659,5.622,2.432c1.567,0.64,3.144,1.249,4.736,1.833l1.111,0.404v-14.075 C204.047,343.844,202.045,342.989,200.069,342.088L200.069,342.088z M340.244,324.69c-8.561,6.84-17.976,12.662-28.052,17.28 l5.468,11.955c5.898-2.708,11.592-5.796,17.039-9.226c1.464-0.922,2.913-1.869,4.342-2.842c0.901-0.614,1.802-1.239,2.693-1.874 c2.284-1.623,4.511-3.308,6.697-5.059L340.244,324.69L340.244,324.69z M167.726,321.336l-8.586,9.923 c3.133,2.714,6.385,5.294,9.738,7.741c1.408,1.024,2.836,2.028,4.28,3.005c5.12,3.466,10.465,6.615,16.015,9.431l5.924-11.735 C185.211,334.7,176.026,328.515,167.726,321.336L167.726,321.336z M366.556,296.704c-6.344,9.032-13.763,17.244-22.083,24.463 l8.596,9.902c5.581-4.849,10.798-10.107,15.601-15.729c3.041-3.553,5.914-7.255,8.612-11.09L366.556,296.704L366.556,296.704z M142.52,292.352l-11.039,7.122c0.66,1.024,1.336,2.038,2.022,3.041l0.005,0.005l0.015,0.021c2.56,3.748,5.284,7.368,8.166,10.859 c1.157,1.403,2.345,2.785,3.548,4.142c2.995,3.364,6.139,6.6,9.426,9.677l8.97-9.574 C155.612,310.124,148.516,301.629,142.52,292.352L142.52,292.352z M383.933,262.436c-3.564,10.542-8.392,20.5-14.305,29.696 l11.039,7.101c1.915-2.97,3.722-6.011,5.427-9.119c0.916-1.669,1.792-3.354,2.647-5.064c2.949-5.914,5.514-12.058,7.66-18.381 L383.933,262.436L383.933,262.436z M126.5,257.454l-12.641,3.738c3.471,11.725,8.361,22.851,14.464,33.178l11.31-6.692 C134.083,278.272,129.649,268.145,126.5,257.454L126.5,257.454z M390.902,224.666c-0.451,11.249-2.273,22.144-5.309,32.517 l12.641,3.697c0.86-2.924,1.628-5.888,2.309-8.878c0.44-1.946,0.845-3.912,1.213-5.888l0.102-0.573 c0.768-4.244,1.352-8.54,1.746-12.908c0.225-2.463,0.384-4.941,0.486-7.434L390.902,224.666L390.902,224.666z M120.996,219.31 l-13.204,0.138c0.026,12.375,1.572,24.412,4.47,35.912l12.79-3.215C122.414,241.633,121.011,230.636,120.996,219.31L120.996,219.31 z M404.209,219.167L404.209,219.167c0,0.911-0.01,1.792-0.026,2.652C404.198,220.933,404.209,220.052,404.209,219.167 L404.209,219.167z M134.733,218.993v0.169l-0.476,0.005h0.476v-0.005V218.993L134.733,218.993z M134.733,218.839v0.077V218.839 L134.733,218.839z M256.005,84.163c-4.792,0-9.523,0.251-14.188,0.737l1.454,13.66c-1.654,0.174-3.302,0.379-4.936,0.614 l-1.981-13.594c-11.085,1.613-21.734,4.577-31.775,8.714l5.217,12.723c-1.516,0.62-3.016,1.275-4.49,1.956l-5.755-12.488 c-10.071,4.639-19.461,10.476-28.012,17.336l8.612,10.726c-1.29,1.039-2.56,2.094-3.804,3.18l-9.027-10.373 c-8.3,7.235-15.703,15.462-22.026,24.509l11.274,7.869c-0.947,1.357-1.864,2.724-2.76,4.122l-11.581-7.404 c-5.893,9.206-10.701,19.169-14.239,29.722l13.03,4.362c-0.522,1.567-1.019,3.144-1.48,4.731l-13.194-3.84 c-3.016,10.378-4.813,21.268-5.243,32.517l13.727,0.522l-0.005,0.195c0.046-1.26,0.113-2.514,0.195-3.758 c0.118-1.766,0.276-3.523,0.471-5.268c1.229-11.003,3.932-21.56,7.91-31.483c0.691-1.725,1.423-3.436,2.196-5.125 c0.282-0.62,0.568-1.229,0.86-1.838c3.389-7.112,7.455-13.855,12.109-20.127c9.298-12.534,20.961-23.224,34.319-31.396 c0.804-0.492,1.603-0.968,2.422-1.444c1.715-0.998,3.461-1.956,5.233-2.867c10.527-5.437,21.944-9.38,33.976-11.54 c1.961-0.353,3.942-0.655,5.934-0.916c5.033-0.65,10.158-0.983,15.365-0.993h0.195h0.195c6.927,0.01,13.727,0.604,20.337,1.741 c1.992,0.343,3.968,0.732,5.929,1.167c1.147,0.256,2.289,0.527,3.425,0.819c52.296,13.292,91.121,60.646,91.382,116.966h13.742 c-0.046-11.279-1.475-22.226-4.122-32.691l-13.327,3.389c-0.41-1.603-0.85-3.2-1.321-4.777l13.184-3.922 c-3.174-10.675-7.634-20.803-13.199-30.188l-11.858,6.994c-0.829-1.408-1.7-2.801-2.586-4.173l11.546-7.496 c-6.016-9.262-13.133-17.746-21.171-25.252l-9.395,10.045c-1.203-1.126-2.427-2.222-3.676-3.297l8.97-10.429 c-8.315-7.158-17.516-13.322-27.412-18.299l-6.195,12.273c-1.469-0.737-2.954-1.449-4.454-2.125l5.673-12.524 c-9.907-4.485-20.454-7.813-31.468-9.8l-2.458,13.527c-1.613-0.297-3.236-0.553-4.869-0.778l1.889-13.614 C268.626,84.603,262.369,84.163,256.005,84.163L256.005,84.163z"/> <path style="fill:#EE6E27;" d="M134.815,214.656c-0.051,1.388-0.077,2.785-0.082,4.183 C134.738,217.436,134.764,216.049,134.815,214.656L134.815,214.656z"/> <path style="fill:#EE6E27;" d="M134.733,218.911v0.082V218.911z"/> <path style="fill:#D23D2C;" d="M404.183,221.819c-0.02,1.126-0.051,2.258-0.097,3.379l0,0 C404.132,224.087,404.163,222.971,404.183,221.819L404.183,221.819z"/> <path style="fill:#EE6E27;" d="M398.228,260.884c-0.573,1.946-1.183,3.876-1.833,5.786h0.005c0.65-1.915,1.26-3.84,1.833-5.786 H398.228L398.228,260.884z"/> <path style="fill:#EF8131;" d="M379.167,301.517c-0.614,0.917-1.244,1.833-1.879,2.739l0,0c0.635-0.901,1.265-1.818,1.879-2.729 V301.517L379.167,301.517z"/> <path style="fill:#EE6E27;" d="M380.667,299.233c-0.492,0.768-0.993,1.526-1.5,2.284l-0.005,0.005 C379.674,300.764,380.17,300.001,380.667,299.233L380.667,299.233L380.667,299.233z"/> <path style="fill:#EF8131;" d="M317.66,353.93c-1.818,0.835-3.661,1.638-5.519,2.401l0,0 C313.999,355.569,315.843,354.77,317.66,353.93L317.66,353.93L317.66,353.93z M189.174,351.437L189.174,351.437 c1.787,0.911,3.599,1.787,5.427,2.621v-0.005C192.768,353.219,190.966,352.348,189.174,351.437L189.174,351.437z M154.665,327.224 L154.665,327.224c1.459,1.377,2.959,2.724,4.475,4.04v-0.005C157.619,329.943,156.129,328.602,154.665,327.224L154.665,327.224z"/> <path style="fill:#EF8131;" d="M312.192,341.975c-1.362,0.625-2.734,1.224-4.122,1.807v2.611l4.076,9.938 c1.859-0.763,3.697-1.562,5.519-2.401L312.192,341.975L312.192,341.975z M195.098,339.702l-5.924,11.735 c1.792,0.911,3.599,1.777,5.432,2.616l5.463-11.965C198.395,341.325,196.736,340.526,195.098,339.702L195.098,339.702z M344.474,321.172c-1.388,1.203-2.796,2.376-4.229,3.523l8.187,10.245c1.572-1.26,3.118-2.55,4.639-3.866L344.474,321.172 L344.474,321.172z M163.635,317.65l-8.97,9.574c1.464,1.377,2.959,2.719,4.48,4.035l8.586-9.923 C166.339,320.138,164.972,318.904,163.635,317.65L163.635,317.65z M369.628,292.132c-0.993,1.546-2.022,3.072-3.077,4.572 l10.732,7.547c0.635-0.906,1.265-1.818,1.879-2.739c0.507-0.758,1.009-1.521,1.5-2.284L369.628,292.132L369.628,292.132z M139.633,287.672l-11.31,6.692c1.019,1.725,2.074,3.425,3.159,5.105l11.039-7.122 C141.527,290.816,140.564,289.254,139.633,287.672L139.633,287.672z M385.587,257.183c-0.517,1.761-1.07,3.517-1.654,5.248 l12.462,4.234c0.65-1.915,1.26-3.84,1.833-5.786L385.587,257.183L385.587,257.183z M125.051,252.145l-12.79,3.215 c0.497,1.961,1.024,3.901,1.597,5.837l12.641-3.738C125.983,255.703,125.496,253.926,125.051,252.145L125.051,252.145z M391.009,218.593h-13.742v0.573h13.742c0,1.843-0.036,3.671-0.108,5.499l13.184,0.532c0.046-1.121,0.077-2.253,0.097-3.379 c0.015-0.86,0.02-1.736,0.026-2.652h-13.194L391.009,218.593L391.009,218.593z M121.098,213.944 c-0.067,1.731-0.097,3.476-0.097,5.228h-13.204v0.282l13.204-0.138v-0.138h13.261l0.476-0.005v-0.169v-0.082v-0.077 c0.005-1.398,0.031-2.796,0.082-4.183l0.005-0.195L121.098,213.944L121.098,213.944z M385.423,180.593l-13.184,3.922 c0.471,1.577,0.911,3.174,1.321,4.777l13.327-3.389C386.432,184.12,385.946,182.349,385.423,180.593L385.423,180.593z M127.985,176.169c-0.584,1.736-1.132,3.487-1.644,5.258l13.194,3.84c0.461-1.587,0.957-3.164,1.48-4.731L127.985,176.169 L127.985,176.169z M369.326,145.731l-11.546,7.496c0.891,1.372,1.756,2.765,2.586,4.173l11.858-6.994 C371.287,148.823,370.324,147.272,369.326,145.731L369.326,145.731z M145.29,141.865c-1.05,1.505-2.079,3.036-3.067,4.582 l11.581,7.404c0.896-1.393,1.818-2.765,2.76-4.122L145.29,141.865L145.29,141.865z M344.054,116.803l-8.97,10.429 c1.249,1.075,2.473,2.171,3.676,3.297l9.395-10.045C346.808,119.224,345.441,118.001,344.054,116.803L344.054,116.803z M171.535,113.828c-1.428,1.147-2.842,2.33-4.219,3.533l9.027,10.373c1.244-1.085,2.514-2.14,3.804-3.18L171.535,113.828 L171.535,113.828z M311.665,96.123l-5.673,12.524c1.5,0.681,2.985,1.388,4.454,2.125l6.195-12.273 C314.998,97.674,313.339,96.881,311.665,96.123L311.665,96.123z M204.58,94.295c-1.695,0.696-3.374,1.428-5.033,2.196l5.755,12.488 c1.48-0.686,2.975-1.336,4.49-1.956L204.58,94.295L204.58,94.295z M274.755,85.453l-1.889,13.614 c1.638,0.225,3.256,0.486,4.869,0.778l2.458-13.527C278.395,85.996,276.582,85.704,274.755,85.453L274.755,85.453z M241.818,84.9 c-1.828,0.189-3.656,0.42-5.458,0.681l1.981,13.594c1.633-0.236,3.277-0.44,4.936-0.614L241.818,84.9L241.818,84.9z"/> <path style="fill:#D34837;" d="M308.07,328.566c-3.768,1.802-7.639,3.415-11.602,4.833v0.02v0.067 c3.963-1.408,7.839-3.016,11.602-4.813V328.566L308.07,328.566z"/> <path style="fill:#F0973E;" d="M308.07,328.668c-3.763,1.797-7.639,3.405-11.602,4.813l0.005,0.266v14.264 c3.63-1.137,7.194-2.427,10.685-3.855l-5.222-12.733c1.531-0.625,3.041-1.28,4.536-1.961l1.597,3.497V328.668L308.07,328.668z"/> <path style="fill:#EF8131;" d="M306.468,329.457c-1.495,0.686-3.005,1.336-4.536,1.961l5.222,12.733l0.916-0.379v-10.819 L306.468,329.457L306.468,329.457z"/> <path style="fill:#F0973E;" d="M302.556,359.885c-2.007,0.666-4.04,1.29-6.088,1.874v13.199c3.63-1.137,7.194-2.427,10.685-3.855 L302.556,359.885L302.556,359.885z M308.07,357.934l-0.768,0.287l0.768,1.679V357.934L308.07,357.934z"/> <path style="fill:#EF8131;" d="M307.302,358.221c-1.572,0.584-3.149,1.137-4.746,1.664l4.598,11.218l0.916-0.379V359.9 L307.302,358.221L307.302,358.221z"/> <path style="fill:#F0973E;" d="M302.556,386.836c-2.007,0.666-4.04,1.29-6.088,1.874v13.199c3.63-1.137,7.194-2.427,10.685-3.855 L302.556,386.836L302.556,386.836z M308.07,384.881l-0.768,0.287l0.768,1.679V384.881L308.07,384.881z"/> <path style="fill:#EF8131;" d="M307.302,385.167c-1.572,0.584-3.149,1.137-4.746,1.664l4.598,11.218l0.916-0.379v-10.824 L307.302,385.167L307.302,385.167z"/> <path style="fill:#EF8131;" d="M307.154,398.054c-3.492,1.428-7.055,2.714-10.685,3.855v13.676 c3.932-1.132,7.803-2.422,11.597-3.855v-11.438L307.154,398.054L307.154,398.054z"/> <polygon style="fill:#EE6E27;" points="308.07,397.676 307.154,398.054 308.07,400.287 "/> <path style="fill:#EF8131;" d="M302.556,386.831c-2.007,0.666-4.04,1.29-6.083,1.874v0.005 C298.516,388.127,300.549,387.502,302.556,386.831L302.556,386.831L302.556,386.831z M308.07,384.881l-0.768,0.287v0.005 L308.07,384.881L308.07,384.881L308.07,384.881z"/> <path style="fill:#EE6E27;" d="M307.297,385.167c-1.572,0.584-3.149,1.137-4.746,1.664v0.005 C304.148,386.304,305.731,385.751,307.297,385.167L307.297,385.167L307.297,385.167z"/> <path style="fill:#EF8131;" d="M307.154,371.103c-3.492,1.428-7.055,2.714-10.685,3.855v13.747 c2.048-0.584,4.076-1.208,6.083-1.874c1.597-0.527,3.174-1.085,4.746-1.664l0.768-0.287v-11.54L307.154,371.103L307.154,371.103z"/> <polygon style="fill:#EE6E27;" points="308.07,370.724 307.154,371.103 308.07,373.34 "/> <polygon style="fill:#ED5E1F;" points="269.537,420.654 269.522,420.659 269.522,420.659 269.537,420.659 "/> <polygon style="fill:#EF8131;" points="269.522,407.404 269.522,407.404 269.522,420.659 269.537,420.654 269.522,419.978 "/> <path style="fill:#EF8131;" d="M302.556,359.885c-2.007,0.666-4.04,1.29-6.083,1.874v0.005 C298.516,361.18,300.549,360.556,302.556,359.885L302.556,359.885L302.556,359.885z M308.07,357.934l-0.768,0.287v0.005 L308.07,357.934L308.07,357.934L308.07,357.934z"/> <path style="fill:#EE6E27;" d="M307.297,358.221c-1.572,0.584-3.149,1.137-4.746,1.664v0.005 C304.148,359.357,305.731,358.804,307.297,358.221L307.297,358.221L307.297,358.221z"/> <path style="fill:#EF8131;" d="M307.154,344.156c-3.492,1.428-7.055,2.714-10.685,3.855v13.747 c2.048-0.584,4.076-1.208,6.083-1.874c1.597-0.527,3.174-1.085,4.746-1.664l0.768-0.287v-11.54L307.154,344.156L307.154,344.156z"/> <polygon style="fill:#EE6E27;" points="308.07,343.777 307.154,344.156 308.07,346.394 "/> <path style="fill:#D34837;" d="M206.075,329.559v0.108c3.118,1.413,6.308,2.698,9.559,3.85v-0.082 C212.383,332.273,209.193,330.977,206.075,329.559L206.075,329.559z"/> <path style="fill:#F0973E;" d="M206.075,329.667v14.981c3.128,1.244,6.318,2.376,9.554,3.389v-14.29v-0.23 C212.378,332.37,209.188,331.08,206.075,329.667L206.075,329.667z"/> <path style="fill:#F0973E;" d="M206.075,358.728v12.867c3.128,1.244,6.318,2.376,9.554,3.389v-13.194 C212.393,360.878,209.213,359.854,206.075,358.728L206.075,358.728z"/> <path style="fill:#F0973E;" d="M206.075,385.674v12.867c3.128,1.244,6.318,2.376,9.554,3.389v-13.194 C212.393,387.825,209.213,386.801,206.075,385.674L206.075,385.674z"/> <path style="fill:#EF8131;" d="M206.075,398.546v13.962c3.139,1.126,6.328,2.161,9.554,3.092v-13.665 C212.388,400.922,209.203,399.79,206.075,398.546L206.075,398.546z"/> <path style="fill:#EF8131;" d="M206.075,385.669v0.005c3.139,1.126,6.323,2.15,9.554,3.067v-0.005 C212.398,387.82,209.213,386.796,206.075,385.669L206.075,385.669z"/> <path style="fill:#EF8131;" d="M206.075,371.594v14.075c3.139,1.126,6.323,2.15,9.554,3.067v-13.747 C212.388,373.975,209.203,372.844,206.075,371.594L206.075,371.594z"/> <polygon style="fill:#EF8131;" points="242.575,419.978 242.57,420.326 242.57,420.326 242.565,420.49 242.565,420.5 242.56,420.649 242.575,420.649 "/> <path style="fill:#EF8131;" d="M206.075,358.723v0.005c3.139,1.126,6.323,2.15,9.554,3.062v-0.005 C212.398,360.873,209.213,359.849,206.075,358.723L206.075,358.723z"/> <path style="fill:#EF8131;" d="M206.075,344.648v14.075c3.139,1.126,6.323,2.15,9.554,3.067v-13.747 C212.388,347.028,209.203,345.892,206.075,344.648L206.075,344.648z"/> <path style="fill:#F1B14F;" d="M256.051,437.688c-7.444,0-13.476-6.031-13.476-13.476v-86.226c0-7.444,6.031-13.476,13.476-13.476 c7.444,0,13.476,6.031,13.476,13.476v86.231C269.522,431.657,263.491,437.688,256.051,437.688L256.051,437.688z"/> <path style="fill:#F0973E;" d="M256.056,419.149h-13.481v0.829v4.239h13.481V419.149L256.056,419.149z M256.056,392.095h-13.481 v5.494h13.481V392.095L256.056,392.095z M256.056,365.035h-13.481v5.499h13.481V365.035L256.056,365.035z M256.056,337.987h-13.481 v5.494h13.481V337.987L256.056,337.987z"/> <path style="fill:#D34837;" d="M269.517,337.638L269.517,337.638L269.517,337.638L269.517,337.638z M269.512,337.459v0.015V337.459 L269.512,337.459z M269.496,337.162v0.01V337.162L269.496,337.162z M269.496,337.121v0.01V337.121L269.496,337.121z M269.491,337.034v0.01V337.034L269.491,337.034z M269.481,336.947v0.01V336.947L269.481,336.947z M269.481,336.906v0.026V336.906 L269.481,336.906z M269.471,336.819l0.005,0.082L269.471,336.819L269.471,336.819z M269.471,336.778v0.02V336.778L269.471,336.778z M269.44,336.481l0.031,0.287L269.44,336.481L269.44,336.481z M269.348,335.805l0.092,0.666L269.348,335.805L269.348,335.805z M269.307,335.56l0.041,0.251L269.307,335.56L269.307,335.56z M269.297,335.519l0.005,0.031L269.297,335.519L269.297,335.519z M269.281,335.432l0.015,0.077L269.281,335.432L269.281,335.432z M269.266,335.35l0.015,0.082L269.266,335.35L269.266,335.35z M269.251,335.268l0.015,0.077L269.251,335.268L269.251,335.268z M269.24,335.227l0.005,0.031L269.24,335.227L269.24,335.227z M269.23,335.186l0.005,0.026L269.23,335.186L269.23,335.186z M269.225,335.145l0.005,0.026L269.225,335.145L269.225,335.145z M269.215,335.104l0.005,0.026L269.215,335.104L269.215,335.104z M269.204,335.063l0.005,0.026L269.204,335.063L269.204,335.063z M269.194,335.022l0.005,0.031L269.194,335.022L269.194,335.022z M269.189,334.981l0.005,0.015L269.189,334.981L269.189,334.981z M269.179,334.94l0.005,0.02L269.179,334.94L269.179,334.94z M269.169,334.899l0.005,0.026L269.169,334.899L269.169,334.899z M269.158,334.858l0.005,0.02L269.158,334.858L269.158,334.858z M269.148,334.822v0.01V334.822L269.148,334.822z M269.138,334.781 v0.01V334.781L269.138,334.781z M269.128,334.74v0.005V334.74L269.128,334.74z M269.097,334.618L269.097,334.618L269.097,334.618 L269.097,334.618z"/> <path style="fill:#D34837;" d="M266.552,432.655L266.552,432.655L266.552,432.655L266.552,432.655z M266.583,432.62l-0.01,0.01 L266.583,432.62L266.583,432.62z M266.614,432.584l-0.01,0.015L266.614,432.584L266.614,432.584z M266.639,432.548l-0.015,0.015 L266.639,432.548L266.639,432.548z M266.665,432.512l-0.015,0.02L266.665,432.512L266.665,432.512z M266.696,432.476l-0.02,0.026 L266.696,432.476L266.696,432.476z M269.501,424.965c-0.154,2.821-1.178,5.407-2.801,7.506 C268.324,430.377,269.348,427.786,269.501,424.965L269.501,424.965z M269.507,424.883l-0.005,0.067L269.507,424.883 L269.507,424.883z M269.512,424.709l-0.005,0.138L269.512,424.709L269.512,424.709z M269.517,424.632v0.02V424.632L269.517,424.632 z M269.517,424.545v0.026V424.545L269.517,424.545z"/> <polygon style="fill:#EE6E27;" points="269.522,407.404 269.522,407.404 269.522,419.149 269.522,420.659 "/> <polygon style="fill:#EE6E27;" points="269.522,380.452 269.522,380.452 269.522,392.095 269.522,393.708 "/> <polygon style="fill:#EE6E27;" points="269.522,353.505 269.522,353.505 269.522,365.035 269.522,366.761 "/> <path style="fill:#F0973E;" d="M269.522,424.218h-13.466v13.471c4.244-0.005,8.028-1.966,10.496-5.028l0,0l0.026-0.031l0.01-0.01 l0.015-0.02l0.01-0.015l0.015-0.015l0.015-0.015l0.01-0.015l0.015-0.02l0.005-0.01l0.02-0.026l0.005-0.005 c1.628-2.094,2.647-4.685,2.801-7.506v-0.015l0.005-0.067v-0.036l0.005-0.138v-0.056v-0.02v-0.056v-0.026L269.522,424.218 L269.522,424.218z M269.522,397.588h-13.466v21.56h13.466v-11.745V397.588L269.522,397.588z M269.522,370.534h-13.466v21.56h13.466 v-11.643V370.534L269.522,370.534z M269.522,343.48h-13.466v21.56h13.466v-11.53V343.48L269.522,343.48z M256.056,324.511v13.471 h13.466l-0.005-0.348l0,0l-0.005-0.164v-0.015l-0.015-0.287v-0.01v-0.036v-0.01l-0.005-0.077v-0.01l-0.005-0.077v-0.01v-0.015 v-0.026v-0.005l-0.005-0.082v-0.026v-0.02v-0.01l-0.031-0.287v-0.005l-0.092-0.666l0,0l-0.041-0.251v-0.01l-0.005-0.031v-0.005 l-0.015-0.077l0,0l-0.015-0.082v-0.005l-0.015-0.077v-0.01l-0.005-0.031l-0.005-0.015l-0.005-0.026l-0.005-0.015l-0.005-0.026 l-0.005-0.015l-0.005-0.026l-0.005-0.015l-0.005-0.026v-0.01l-0.005-0.031l-0.005-0.026l-0.005-0.015l-0.005-0.02l-0.005-0.02 l-0.005-0.015l-0.005-0.026l-0.005-0.02l-0.005-0.02l-0.005-0.031v-0.01l-0.01-0.031v-0.01l-0.005-0.031v-0.01l-0.031-0.118l0,0 C267.602,328.806,262.333,324.516,256.056,324.511L256.056,324.511z"/> <path style="fill:#EF8131;" d="M269.522,419.149h-13.466v5.069h13.466V419.149L269.522,419.149z M269.522,392.095h-13.466v5.494 h13.466V392.095L269.522,392.095z M269.522,365.035h-13.466v5.499h13.466V365.035L269.522,365.035z M269.522,337.987h-13.466v5.494 h13.466v-3.799l0,0v-0.015V337.987L269.522,337.987z"/> <path style="fill:#F1B14F;" d="M229.1,433.454c-7.444,0-13.476-6.031-13.476-13.476v-86.231c0-7.444,6.031-13.476,13.476-13.476 s13.476,6.031,13.476,13.476v86.231C242.575,427.423,236.544,433.454,229.1,433.454L229.1,433.454z"/> <path style="fill:#F0973E;" d="M229.11,414.909h-13.481v5.069h13.481V414.909L229.11,414.909z M229.11,387.86h-13.481v5.494h13.481 V387.86L229.11,387.86z M229.11,360.801h-13.481v5.499h13.481V360.801L229.11,360.801z M229.11,333.747h-13.481v5.494h13.481 V333.747L229.11,333.747z"/> <path style="fill:#D34837;" d="M242.57,333.389v0.026V333.389L242.57,333.389z M242.57,333.312v0.02V333.312L242.57,333.312z M242.56,333.117l0.005,0.138L242.56,333.117L242.56,333.117z M242.555,333.01l0.005,0.067L242.555,333.01L242.555,333.01z M239.749,325.494c1.628,2.094,2.647,4.685,2.801,7.506C242.401,330.179,241.377,327.588,239.749,325.494L239.749,325.494z M239.729,325.463l0.026,0.031L239.729,325.463L239.729,325.463z M239.703,325.432l0.02,0.026L239.703,325.432L239.703,325.432z M239.677,325.396l0.015,0.02L239.677,325.396L239.677,325.396z M239.652,325.366l0.01,0.015L239.652,325.366L239.652,325.366z M239.626,325.335l0.01,0.01L239.626,325.335L239.626,325.335z M239.601,325.304L239.601,325.304L239.601,325.304L239.601,325.304z "/> <path style="fill:#EE6E27;" d="M242.191,423.178L242.191,423.178L242.191,423.178L242.191,423.178z M242.202,423.137v0.005V423.137 L242.202,423.137z M242.217,423.086l-0.005,0.02L242.217,423.086L242.217,423.086z M242.227,423.04l-0.005,0.026L242.227,423.04 L242.227,423.04z M242.232,422.999l-0.005,0.02L242.232,422.999L242.232,422.999z M242.243,422.968l-0.005,0.015L242.243,422.968 L242.243,422.968z M242.253,422.912l-0.005,0.026L242.253,422.912L242.253,422.912z M242.263,422.876l-0.005,0.026L242.263,422.876 L242.263,422.876z M242.273,422.83l-0.005,0.026L242.273,422.83L242.273,422.83z M242.278,422.794l-0.005,0.02L242.278,422.794 L242.278,422.794z M242.289,422.753l-0.005,0.02L242.289,422.753L242.289,422.753z M242.299,422.707l-0.005,0.026L242.299,422.707 L242.299,422.707z M242.314,422.62l-0.015,0.077L242.314,422.62L242.314,422.62z M242.324,422.584l-0.005,0.031L242.324,422.584 L242.324,422.584z M242.335,422.538l-0.005,0.031L242.335,422.538L242.335,422.538z M242.35,422.451l-0.015,0.077L242.35,422.451 L242.35,422.451z M242.355,422.415l-0.005,0.031L242.355,422.415L242.355,422.415z M242.401,422.159l-0.041,0.246L242.401,422.159 L242.401,422.159z M242.493,421.489l-0.092,0.666L242.493,421.489L242.493,421.489z M242.519,421.197l-0.031,0.287L242.519,421.197 L242.519,421.197z M242.524,421.171v0.015V421.171L242.524,421.171z M242.534,421.064l-0.005,0.082L242.534,421.064 L242.534,421.064z M242.534,421.033v0.026V421.033L242.534,421.033z M242.534,421.002v0.01V421.002L242.534,421.002z M242.545,420.92v0.01V420.92L242.545,420.92z M242.55,420.838L242.55,420.838L242.55,420.838L242.55,420.838z M242.55,420.792 v0.005V420.792L242.55,420.792z"/> <path style="fill:#F0973E;" d="M242.575,419.978H229.11v13.471c6.318-0.005,11.622-4.357,13.071-10.23l0,0l0.01-0.041v-0.005 l0.01-0.036v-0.005l0.01-0.036l0.005-0.02l0.005-0.02l0.005-0.026l0.005-0.015l0.005-0.02l0.005-0.02l0.005-0.015l0.005-0.026 l0.005-0.026l0.005-0.015l0.005-0.026l0.005-0.015l0.005-0.026l0.005-0.015l0.005-0.02l0.005-0.02l0.005-0.02l0.005-0.02 l0.005-0.026l0.005-0.015l0.015-0.077v-0.005l0.005-0.031l0.005-0.015l0.005-0.031v-0.005l0.015-0.082v-0.005l0.005-0.031V422.4 l0.041-0.251v-0.005l0.092-0.666v-0.005l0.031-0.287v-0.005v-0.02v-0.026l0.005-0.082v-0.005v-0.026v-0.015v-0.01l0.005-0.072 v-0.01l0.005-0.077v-0.005v-0.041v-0.01l0.015-0.292v-0.01l0.005-0.164l0,0L242.575,419.978L242.575,419.978z M242.575,393.354 H229.11v21.555h13.466V393.354L242.575,393.354z M242.575,366.3H229.11v21.555h13.466V366.3L242.575,366.3z M242.575,339.241 H229.11v21.56h13.466V339.241L242.575,339.241z M229.11,320.276v13.476h13.466l-0.005-0.333v-0.026v-0.056v-0.02v-0.056 l-0.005-0.138v-0.036l-0.005-0.067v-0.015c-0.154-2.821-1.178-5.407-2.801-7.506l0,0l-0.026-0.031l-0.005-0.01l-0.02-0.026 l-0.005-0.01l-0.015-0.021l-0.015-0.02l-0.01-0.015l-0.015-0.02l-0.01-0.01l-0.026-0.031l0,0 C237.133,322.237,233.349,320.276,229.11,320.276L229.11,320.276z"/> <path style="fill:#EF8131;" d="M242.575,414.909H229.11v5.069h13.466v-0.829V414.909L242.575,414.909z M242.575,387.86H229.11 v5.494h13.466v-1.26V387.86L242.575,387.86z M242.575,360.801H229.11v5.499h13.466v-1.265V360.801L242.575,360.801z M242.575,333.747H229.11v5.494h13.466v-1.26V333.747L242.575,333.747z"/> <path style="fill:#F1B14F;" d="M282.998,433.454c-7.444,0-13.476-6.031-13.476-13.476v-86.231c0-7.444,6.031-13.476,13.476-13.476 c7.444,0,13.476,6.031,13.476,13.476v86.231C296.468,427.423,290.437,433.454,282.998,433.454L282.998,433.454z"/> <path style="fill:#F0973E;" d="M283.003,414.909h-13.481v5.069h13.481V414.909L283.003,414.909z M283.003,387.86h-13.481v5.494 h13.481V387.86L283.003,387.86z M283.003,360.801h-13.481v5.499h13.481V360.801L283.003,360.801z M283.003,333.747h-13.481v5.494 h13.481V333.747L283.003,333.747z"/> <path style="fill:#D34837;" d="M296.463,333.389v0.01V333.389L296.463,333.389z M296.463,333.312v0.02V333.312L296.463,333.312z M296.453,333.117l0.005,0.138L296.453,333.117L296.453,333.117z M296.448,333.01l0.005,0.067L296.448,333.01L296.448,333.01z M293.212,324.961c1.879,2.181,3.072,4.972,3.236,8.038C296.279,329.933,295.091,327.142,293.212,324.961L293.212,324.961z M293.187,324.931l0.026,0.031L293.187,324.931L293.187,324.931z M293.161,324.9l0.02,0.026L293.161,324.9L293.161,324.9z M293.13,324.869l0.015,0.015L293.13,324.869L293.13,324.869z M293.105,324.838l0.01,0.01L293.105,324.838L293.105,324.838z M293.079,324.813l0.005,0.005L293.079,324.813L293.079,324.813z"/> <path style="fill:#EE6E27;" d="M296.079,423.224L296.079,423.224L296.079,423.224L296.079,423.224z M296.09,423.178L296.09,423.178 L296.09,423.178L296.09,423.178z M296.1,423.137v0.005V423.137L296.1,423.137z M296.11,423.086l-0.005,0.02L296.11,423.086 L296.11,423.086z M296.12,423.04l-0.005,0.026L296.12,423.04L296.12,423.04z M296.131,422.999l-0.005,0.02L296.131,422.999 L296.131,422.999z M296.136,422.968l-0.005,0.015L296.136,422.968L296.136,422.968z M296.151,422.912l-0.005,0.026L296.151,422.912 L296.151,422.912z M296.156,422.876l-0.005,0.026L296.156,422.876L296.156,422.876z M296.166,422.83l-0.005,0.026L296.166,422.83 L296.166,422.83z M296.177,422.794l-0.005,0.02L296.177,422.794L296.177,422.794z M296.182,422.753l-0.005,0.02L296.182,422.753 L296.182,422.753z M296.192,422.707l-0.005,0.026L296.192,422.707L296.192,422.707z M296.212,422.62l-0.015,0.077L296.212,422.62 L296.212,422.62z M296.218,422.584l-0.005,0.031L296.218,422.584L296.218,422.584z M296.228,422.538l-0.005,0.031L296.228,422.538 L296.228,422.538z M296.243,422.451l-0.015,0.077L296.243,422.451L296.243,422.451z M296.248,422.415l-0.005,0.031L296.248,422.415 L296.248,422.415z M296.294,422.159l-0.041,0.246L296.294,422.159L296.294,422.159z M296.387,421.489l-0.092,0.666L296.387,421.489 L296.387,421.489z M296.417,421.197l-0.031,0.287L296.417,421.197L296.417,421.197z M296.417,421.171v0.015V421.171 L296.417,421.171z M296.428,421.064l-0.005,0.082L296.428,421.064L296.428,421.064z M296.428,421.033v0.026V421.033 L296.428,421.033z M296.433,421.002v0.01V421.002L296.433,421.002z M296.438,420.92v0.01V420.92L296.438,420.92z M296.443,420.838 L296.443,420.838L296.443,420.838L296.443,420.838z M296.448,420.792v0.005V420.792L296.448,420.792z M296.458,420.49v0.01V420.49 L296.458,420.49z M296.463,420.326L296.463,420.326L296.463,420.326L296.463,420.326z"/> <polygon style="fill:#EE6E27;" points="296.468,401.905 296.468,401.905 296.468,414.909 296.468,415.58 "/> <polygon style="fill:#EE6E27;" points="296.468,374.958 296.468,374.958 296.468,387.86 296.468,388.705 "/> <polygon style="fill:#EE6E27;" points="296.468,348.012 296.468,348.012 296.468,360.801 296.468,361.759 "/> <path style="fill:#F0973E;" d="M296.468,419.978h-13.466v13.471c6.318-0.005,11.622-4.357,13.071-10.23l0,0l0.01-0.041v-0.005 l0.01-0.036v-0.005l0.01-0.036l0.005-0.02l0.005-0.02l0.005-0.026l0.005-0.015l0.005-0.02l0.005-0.02l0.005-0.015l0.005-0.026 l0.005-0.026l0.005-0.015l0.005-0.026l0.005-0.015l0.005-0.026l0.005-0.015l0.005-0.02l0.005-0.02l0.005-0.02l0.005-0.02 l0.005-0.026l0.005-0.015l0.015-0.077v-0.005l0.005-0.031v-0.015l0.005-0.031v-0.005l0.015-0.082v-0.005l0.005-0.031V422.4 l0.041-0.251v-0.005l0.092-0.666v-0.005l0.031-0.287v-0.005v-0.02v-0.026l0.005-0.082v-0.005v-0.026v-0.015v-0.01l0.005-0.072 v-0.01l0.005-0.077v-0.005v-0.041v-0.01l0.015-0.292v-0.01l0.005-0.164l0,0L296.468,419.978L296.468,419.978z M296.468,393.354 h-13.466v21.555h13.466v-13.005V393.354L296.468,393.354z M296.468,366.3h-13.466v21.555h13.466v-12.902V366.3L296.468,366.3z M296.468,339.241h-13.466v21.56h13.466v-12.79V339.241L296.468,339.241z M283.003,320.276v13.476h13.466l-0.005-0.333v-0.02v-0.01 v-0.056v-0.02v-0.056l-0.005-0.138v-0.036l-0.01-0.072v-0.015c-0.169-3.062-1.357-5.852-3.236-8.038l0,0l-0.026-0.031l-0.005-0.005 l-0.02-0.026l-0.01-0.015l-0.015-0.015l-0.021-0.02l-0.01-0.01l-0.02-0.026l-0.005-0.005 C290.611,322.033,287.012,320.276,283.003,320.276L283.003,320.276z"/> <path style="fill:#EF8131;" d="M296.468,414.909h-13.466v5.069h13.466V414.909L296.468,414.909z M296.468,387.86h-13.466v5.494 h13.466V387.86L296.468,387.86z M296.468,360.801h-13.466v5.499h13.466V360.801L296.468,360.801z M296.468,333.747h-13.466v5.494 h13.466V333.747L296.468,333.747z"/> </g> </g>
</svg>